G75*
%MOIN*%
%OFA0B0*%
%FSLAX25Y25*%
%IPPOS*%
%LPD*%
%AMOC8*
5,1,8,0,0,1.08239X$1,22.5*
%
%ADD10C,0.00400*%
%ADD11C,0.01200*%
D10*
X0197450Y0208638D02*
X0202054Y0208638D01*
X0202054Y0210940D01*
X0201287Y0211707D01*
X0199752Y0211707D01*
X0198985Y0210940D01*
X0198985Y0208638D01*
X0198217Y0213242D02*
X0197450Y0214009D01*
X0197450Y0215544D01*
X0198217Y0216311D01*
X0198217Y0217846D02*
X0201287Y0220915D01*
X0198217Y0220915D01*
X0197450Y0220148D01*
X0197450Y0218613D01*
X0198217Y0217846D01*
X0201287Y0217846D01*
X0202054Y0218613D01*
X0202054Y0220148D01*
X0201287Y0220915D01*
X0201287Y0216311D02*
X0202054Y0215544D01*
X0202054Y0214009D01*
X0201287Y0213242D01*
X0198217Y0213242D01*
X0207450Y0214009D02*
X0208217Y0213242D01*
X0211287Y0213242D01*
X0212054Y0214009D01*
X0212054Y0215544D01*
X0211287Y0216311D01*
X0210519Y0217846D02*
X0212054Y0219381D01*
X0207450Y0219381D01*
X0207450Y0220915D02*
X0207450Y0217846D01*
X0208217Y0216311D02*
X0207450Y0215544D01*
X0207450Y0214009D01*
X0209752Y0211707D02*
X0208985Y0210940D01*
X0208985Y0208638D01*
X0207450Y0208638D02*
X0212054Y0208638D01*
X0212054Y0210940D01*
X0211287Y0211707D01*
X0209752Y0211707D01*
X0217450Y0214009D02*
X0218217Y0213242D01*
X0221287Y0213242D01*
X0222054Y0214009D01*
X0222054Y0215544D01*
X0221287Y0216311D01*
X0221287Y0217846D02*
X0222054Y0218613D01*
X0222054Y0220148D01*
X0221287Y0220915D01*
X0220519Y0220915D01*
X0217450Y0217846D01*
X0217450Y0220915D01*
X0218217Y0216311D02*
X0217450Y0215544D01*
X0217450Y0214009D01*
X0219752Y0211707D02*
X0218985Y0210940D01*
X0218985Y0208638D01*
X0217450Y0208638D02*
X0222054Y0208638D01*
X0222054Y0210940D01*
X0221287Y0211707D01*
X0219752Y0211707D01*
X0227450Y0214009D02*
X0227450Y0215544D01*
X0228217Y0216311D01*
X0228217Y0217846D02*
X0227450Y0218613D01*
X0227450Y0220148D01*
X0228217Y0220915D01*
X0228985Y0220915D01*
X0229752Y0220148D01*
X0229752Y0219381D01*
X0229752Y0220148D02*
X0230519Y0220915D01*
X0231287Y0220915D01*
X0232054Y0220148D01*
X0232054Y0218613D01*
X0231287Y0217846D01*
X0231287Y0216311D02*
X0232054Y0215544D01*
X0232054Y0214009D01*
X0231287Y0213242D01*
X0228217Y0213242D01*
X0227450Y0214009D01*
X0229752Y0211707D02*
X0228985Y0210940D01*
X0228985Y0208638D01*
X0227450Y0208638D02*
X0232054Y0208638D01*
X0232054Y0210940D01*
X0231287Y0211707D01*
X0229752Y0211707D01*
X0237450Y0214009D02*
X0237450Y0215544D01*
X0238217Y0216311D01*
X0239752Y0217846D02*
X0239752Y0220915D01*
X0242054Y0220148D02*
X0239752Y0217846D01*
X0241287Y0216311D02*
X0242054Y0215544D01*
X0242054Y0214009D01*
X0241287Y0213242D01*
X0238217Y0213242D01*
X0237450Y0214009D01*
X0239752Y0211707D02*
X0238985Y0210940D01*
X0238985Y0208638D01*
X0237450Y0208638D02*
X0242054Y0208638D01*
X0242054Y0210940D01*
X0241287Y0211707D01*
X0239752Y0211707D01*
X0247450Y0214009D02*
X0247450Y0215544D01*
X0248217Y0216311D01*
X0248217Y0217846D02*
X0247450Y0218613D01*
X0247450Y0220148D01*
X0248217Y0220915D01*
X0249752Y0220915D01*
X0250519Y0220148D01*
X0250519Y0219381D01*
X0249752Y0217846D01*
X0252054Y0217846D01*
X0252054Y0220915D01*
X0251287Y0216311D02*
X0252054Y0215544D01*
X0252054Y0214009D01*
X0251287Y0213242D01*
X0248217Y0213242D01*
X0247450Y0214009D01*
X0249752Y0211707D02*
X0248985Y0210940D01*
X0248985Y0208638D01*
X0247450Y0208638D02*
X0252054Y0208638D01*
X0252054Y0210940D01*
X0251287Y0211707D01*
X0249752Y0211707D01*
X0257450Y0214009D02*
X0257450Y0215544D01*
X0258217Y0216311D01*
X0258217Y0217846D02*
X0257450Y0218613D01*
X0257450Y0220148D01*
X0258217Y0220915D01*
X0258985Y0220915D01*
X0259752Y0220148D01*
X0259752Y0217846D01*
X0258217Y0217846D01*
X0259752Y0217846D02*
X0261287Y0219381D01*
X0262054Y0220915D01*
X0261287Y0216311D02*
X0262054Y0215544D01*
X0262054Y0214009D01*
X0261287Y0213242D01*
X0258217Y0213242D01*
X0257450Y0214009D01*
X0259752Y0211707D02*
X0258985Y0210940D01*
X0258985Y0208638D01*
X0257450Y0208638D02*
X0262054Y0208638D01*
X0262054Y0210940D01*
X0261287Y0211707D01*
X0259752Y0211707D01*
X0267450Y0214009D02*
X0267450Y0215544D01*
X0268217Y0216311D01*
X0268217Y0217846D02*
X0267450Y0217846D01*
X0268217Y0217846D02*
X0271287Y0220915D01*
X0272054Y0220915D01*
X0272054Y0217846D01*
X0271287Y0216311D02*
X0272054Y0215544D01*
X0272054Y0214009D01*
X0271287Y0213242D01*
X0268217Y0213242D01*
X0267450Y0214009D01*
X0269752Y0211707D02*
X0268985Y0210940D01*
X0268985Y0208638D01*
X0267450Y0208638D02*
X0272054Y0208638D01*
X0272054Y0210940D01*
X0271287Y0211707D01*
X0269752Y0211707D01*
X0277450Y0213242D02*
X0277450Y0215544D01*
X0278217Y0216311D01*
X0278985Y0216311D01*
X0279752Y0215544D01*
X0279752Y0213242D01*
X0279752Y0211707D02*
X0278985Y0210940D01*
X0278985Y0208638D01*
X0277450Y0208638D02*
X0282054Y0208638D01*
X0282054Y0210940D01*
X0281287Y0211707D01*
X0279752Y0211707D01*
X0282054Y0213242D02*
X0282054Y0215544D01*
X0281287Y0216311D01*
X0280519Y0216311D01*
X0279752Y0215544D01*
X0278217Y0217846D02*
X0277450Y0217846D01*
X0278217Y0217846D02*
X0281287Y0220915D01*
X0282054Y0220915D01*
X0282054Y0217846D01*
X0287450Y0218613D02*
X0287450Y0220148D01*
X0288217Y0220915D01*
X0288985Y0220915D01*
X0289752Y0220148D01*
X0289752Y0217846D01*
X0288217Y0217846D01*
X0287450Y0218613D01*
X0288217Y0216311D02*
X0287450Y0215544D01*
X0287450Y0213242D01*
X0292054Y0213242D01*
X0292054Y0215544D01*
X0291287Y0216311D01*
X0290519Y0216311D01*
X0289752Y0215544D01*
X0289752Y0213242D01*
X0289752Y0211707D02*
X0288985Y0210940D01*
X0288985Y0208638D01*
X0287450Y0208638D02*
X0292054Y0208638D01*
X0292054Y0210940D01*
X0291287Y0211707D01*
X0289752Y0211707D01*
X0289752Y0215544D02*
X0288985Y0216311D01*
X0288217Y0216311D01*
X0289752Y0217846D02*
X0291287Y0219381D01*
X0292054Y0220915D01*
X0297450Y0220148D02*
X0297450Y0218613D01*
X0298217Y0217846D01*
X0298217Y0216311D02*
X0297450Y0215544D01*
X0297450Y0213242D01*
X0302054Y0213242D01*
X0302054Y0215544D01*
X0301287Y0216311D01*
X0300519Y0216311D01*
X0299752Y0215544D01*
X0299752Y0213242D01*
X0299752Y0211707D02*
X0298985Y0210940D01*
X0298985Y0208638D01*
X0297450Y0208638D02*
X0302054Y0208638D01*
X0302054Y0210940D01*
X0301287Y0211707D01*
X0299752Y0211707D01*
X0299752Y0215544D02*
X0298985Y0216311D01*
X0298217Y0216311D01*
X0299752Y0217846D02*
X0300519Y0219381D01*
X0300519Y0220148D01*
X0299752Y0220915D01*
X0298217Y0220915D01*
X0297450Y0220148D01*
X0299752Y0217846D02*
X0302054Y0217846D01*
X0302054Y0220915D01*
X0307450Y0220148D02*
X0312054Y0220148D01*
X0309752Y0217846D01*
X0309752Y0220915D01*
X0310519Y0216311D02*
X0309752Y0215544D01*
X0309752Y0213242D01*
X0309752Y0211707D02*
X0308985Y0210940D01*
X0308985Y0208638D01*
X0307450Y0208638D02*
X0312054Y0208638D01*
X0312054Y0210940D01*
X0311287Y0211707D01*
X0309752Y0211707D01*
X0307450Y0213242D02*
X0312054Y0213242D01*
X0312054Y0215544D01*
X0311287Y0216311D01*
X0310519Y0216311D01*
X0309752Y0215544D02*
X0308985Y0216311D01*
X0308217Y0216311D01*
X0307450Y0215544D01*
X0307450Y0213242D01*
X0317450Y0214009D02*
X0318217Y0213242D01*
X0317450Y0214009D02*
X0317450Y0215544D01*
X0318217Y0216311D01*
X0319752Y0216311D01*
X0320519Y0215544D01*
X0320519Y0214777D01*
X0319752Y0213242D01*
X0322054Y0213242D01*
X0322054Y0216311D01*
X0322054Y0217846D02*
X0318985Y0217846D01*
X0317450Y0219381D01*
X0318985Y0220915D01*
X0322054Y0220915D01*
X0319752Y0211707D02*
X0319752Y0208638D01*
X0321287Y0210173D02*
X0318217Y0210173D01*
X0282054Y0213242D02*
X0277450Y0213242D01*
X0242054Y0220148D02*
X0237450Y0220148D01*
X0237450Y0242450D02*
X0242054Y0242450D01*
X0242054Y0244752D01*
X0241287Y0245519D01*
X0239752Y0245519D01*
X0238985Y0244752D01*
X0238985Y0242450D01*
X0247450Y0242450D02*
X0252054Y0242450D01*
X0252054Y0244752D01*
X0251287Y0245519D01*
X0249752Y0245519D01*
X0248985Y0244752D01*
X0248985Y0242450D01*
X0257450Y0242450D02*
X0262054Y0242450D01*
X0262054Y0244752D01*
X0261287Y0245519D01*
X0259752Y0245519D01*
X0258985Y0244752D01*
X0258985Y0242450D01*
X0267450Y0242450D02*
X0272054Y0242450D01*
X0272054Y0244752D01*
X0271287Y0245519D01*
X0269752Y0245519D01*
X0268985Y0244752D01*
X0268985Y0242450D01*
X0277450Y0242450D02*
X0282054Y0242450D01*
X0282054Y0244752D01*
X0281287Y0245519D01*
X0279752Y0245519D01*
X0278985Y0244752D01*
X0278985Y0242450D01*
X0279752Y0247054D02*
X0279752Y0249356D01*
X0278985Y0250123D01*
X0278217Y0250123D01*
X0277450Y0249356D01*
X0277450Y0247054D01*
X0282054Y0247054D01*
X0282054Y0249356D01*
X0281287Y0250123D01*
X0280519Y0250123D01*
X0279752Y0249356D01*
X0278217Y0251658D02*
X0281287Y0251658D01*
X0282054Y0252425D01*
X0282054Y0253960D01*
X0281287Y0254727D01*
X0278217Y0251658D01*
X0277450Y0252425D01*
X0277450Y0253960D01*
X0278217Y0254727D01*
X0281287Y0254727D01*
X0287450Y0254727D02*
X0287450Y0251658D01*
X0287450Y0253192D02*
X0292054Y0253192D01*
X0290519Y0251658D01*
X0290519Y0250123D02*
X0289752Y0249356D01*
X0289752Y0247054D01*
X0289752Y0245519D02*
X0288985Y0244752D01*
X0288985Y0242450D01*
X0287450Y0242450D02*
X0292054Y0242450D01*
X0292054Y0244752D01*
X0291287Y0245519D01*
X0289752Y0245519D01*
X0287450Y0247054D02*
X0292054Y0247054D01*
X0292054Y0249356D01*
X0291287Y0250123D01*
X0290519Y0250123D01*
X0289752Y0249356D02*
X0288985Y0250123D01*
X0288217Y0250123D01*
X0287450Y0249356D01*
X0287450Y0247054D01*
X0297450Y0247054D02*
X0297450Y0249356D01*
X0298217Y0250123D01*
X0298985Y0250123D01*
X0299752Y0249356D01*
X0299752Y0247054D01*
X0299752Y0245519D02*
X0298985Y0244752D01*
X0298985Y0242450D01*
X0297450Y0242450D02*
X0302054Y0242450D01*
X0302054Y0244752D01*
X0301287Y0245519D01*
X0299752Y0245519D01*
X0297450Y0247054D02*
X0302054Y0247054D01*
X0302054Y0249356D01*
X0301287Y0250123D01*
X0300519Y0250123D01*
X0299752Y0249356D01*
X0301287Y0251658D02*
X0302054Y0252425D01*
X0302054Y0253960D01*
X0301287Y0254727D01*
X0300519Y0254727D01*
X0297450Y0251658D01*
X0297450Y0254727D01*
X0307450Y0253960D02*
X0307450Y0252425D01*
X0308217Y0251658D01*
X0308217Y0250123D02*
X0307450Y0249356D01*
X0307450Y0247054D01*
X0312054Y0247054D01*
X0312054Y0249356D01*
X0311287Y0250123D01*
X0310519Y0250123D01*
X0309752Y0249356D01*
X0309752Y0247054D01*
X0309752Y0245519D02*
X0308985Y0244752D01*
X0308985Y0242450D01*
X0307450Y0242450D02*
X0312054Y0242450D01*
X0312054Y0244752D01*
X0311287Y0245519D01*
X0309752Y0245519D01*
X0309752Y0249356D02*
X0308985Y0250123D01*
X0308217Y0250123D01*
X0309752Y0253192D02*
X0309752Y0253960D01*
X0308985Y0254727D01*
X0308217Y0254727D01*
X0307450Y0253960D01*
X0309752Y0253960D02*
X0310519Y0254727D01*
X0311287Y0254727D01*
X0312054Y0253960D01*
X0312054Y0252425D01*
X0311287Y0251658D01*
X0317450Y0251658D02*
X0317450Y0253960D01*
X0318217Y0254727D01*
X0321287Y0254727D01*
X0322054Y0253960D01*
X0322054Y0251658D01*
X0317450Y0251658D01*
X0317450Y0250123D02*
X0322054Y0250123D01*
X0322054Y0247054D02*
X0317450Y0247054D01*
X0318217Y0245519D02*
X0319752Y0245519D01*
X0319752Y0243985D01*
X0321287Y0245519D02*
X0322054Y0244752D01*
X0322054Y0243217D01*
X0321287Y0242450D01*
X0318217Y0242450D01*
X0317450Y0243217D01*
X0317450Y0244752D01*
X0318217Y0245519D01*
X0322054Y0247054D02*
X0317450Y0250123D01*
X0272054Y0248589D02*
X0270519Y0250123D01*
X0267450Y0250123D01*
X0267450Y0251658D02*
X0268217Y0251658D01*
X0271287Y0254727D01*
X0272054Y0254727D01*
X0272054Y0251658D01*
X0269752Y0250123D02*
X0269752Y0247054D01*
X0270519Y0247054D02*
X0272054Y0248589D01*
X0270519Y0247054D02*
X0267450Y0247054D01*
X0262054Y0248589D02*
X0260519Y0250123D01*
X0257450Y0250123D01*
X0258217Y0251658D02*
X0257450Y0252425D01*
X0257450Y0253960D01*
X0258217Y0254727D01*
X0258985Y0254727D01*
X0259752Y0253960D01*
X0259752Y0251658D01*
X0258217Y0251658D01*
X0259752Y0251658D02*
X0261287Y0253192D01*
X0262054Y0254727D01*
X0259752Y0250123D02*
X0259752Y0247054D01*
X0260519Y0247054D02*
X0262054Y0248589D01*
X0260519Y0247054D02*
X0257450Y0247054D01*
X0252054Y0248589D02*
X0250519Y0250123D01*
X0247450Y0250123D01*
X0248217Y0251658D02*
X0247450Y0252425D01*
X0247450Y0253960D01*
X0248217Y0254727D01*
X0249752Y0254727D01*
X0250519Y0253960D01*
X0250519Y0253192D01*
X0249752Y0251658D01*
X0252054Y0251658D01*
X0252054Y0254727D01*
X0249752Y0250123D02*
X0249752Y0247054D01*
X0250519Y0247054D02*
X0252054Y0248589D01*
X0250519Y0247054D02*
X0247450Y0247054D01*
X0242054Y0248589D02*
X0240519Y0250123D01*
X0237450Y0250123D01*
X0239752Y0250123D02*
X0239752Y0247054D01*
X0240519Y0247054D02*
X0242054Y0248589D01*
X0240519Y0247054D02*
X0237450Y0247054D01*
X0239752Y0251658D02*
X0239752Y0254727D01*
X0242054Y0253960D02*
X0239752Y0251658D01*
X0237450Y0253960D02*
X0242054Y0253960D01*
X0232054Y0253960D02*
X0231287Y0254727D01*
X0230519Y0254727D01*
X0229752Y0253960D01*
X0228985Y0254727D01*
X0228217Y0254727D01*
X0227450Y0253960D01*
X0227450Y0252425D01*
X0228217Y0251658D01*
X0227450Y0250123D02*
X0230519Y0250123D01*
X0232054Y0248589D01*
X0230519Y0247054D01*
X0227450Y0247054D01*
X0229752Y0247054D02*
X0229752Y0250123D01*
X0231287Y0251658D02*
X0232054Y0252425D01*
X0232054Y0253960D01*
X0229752Y0253960D02*
X0229752Y0253192D01*
X0222054Y0252425D02*
X0221287Y0251658D01*
X0222054Y0252425D02*
X0222054Y0253960D01*
X0221287Y0254727D01*
X0220519Y0254727D01*
X0217450Y0251658D01*
X0217450Y0254727D01*
X0217450Y0250123D02*
X0220519Y0250123D01*
X0222054Y0248589D01*
X0220519Y0247054D01*
X0217450Y0247054D01*
X0219752Y0247054D02*
X0219752Y0250123D01*
X0212054Y0248589D02*
X0210519Y0250123D01*
X0207450Y0250123D01*
X0207450Y0251658D02*
X0207450Y0254727D01*
X0207450Y0253192D02*
X0212054Y0253192D01*
X0210519Y0251658D01*
X0209752Y0250123D02*
X0209752Y0247054D01*
X0210519Y0247054D02*
X0212054Y0248589D01*
X0210519Y0247054D02*
X0207450Y0247054D01*
X0209752Y0245519D02*
X0208985Y0244752D01*
X0208985Y0242450D01*
X0207450Y0242450D02*
X0212054Y0242450D01*
X0212054Y0244752D01*
X0211287Y0245519D01*
X0209752Y0245519D01*
X0202054Y0244752D02*
X0202054Y0242450D01*
X0197450Y0242450D01*
X0198985Y0242450D02*
X0198985Y0244752D01*
X0199752Y0245519D01*
X0201287Y0245519D01*
X0202054Y0244752D01*
X0200519Y0247054D02*
X0202054Y0248589D01*
X0200519Y0250123D01*
X0197450Y0250123D01*
X0198217Y0251658D02*
X0201287Y0254727D01*
X0198217Y0254727D01*
X0197450Y0253960D01*
X0197450Y0252425D01*
X0198217Y0251658D01*
X0201287Y0251658D01*
X0202054Y0252425D01*
X0202054Y0253960D01*
X0201287Y0254727D01*
X0199752Y0250123D02*
X0199752Y0247054D01*
X0200519Y0247054D02*
X0197450Y0247054D01*
X0217450Y0242450D02*
X0222054Y0242450D01*
X0222054Y0244752D01*
X0221287Y0245519D01*
X0219752Y0245519D01*
X0218985Y0244752D01*
X0218985Y0242450D01*
X0227450Y0242450D02*
X0232054Y0242450D01*
X0232054Y0244752D01*
X0231287Y0245519D01*
X0229752Y0245519D01*
X0228985Y0244752D01*
X0228985Y0242450D01*
D11*
X0031712Y0030808D02*
X0031712Y0016996D01*
X0031712Y0021600D02*
X0024806Y0021600D01*
X0022504Y0023902D01*
X0022504Y0028506D01*
X0024806Y0030808D01*
X0031712Y0030808D01*
X0036316Y0030808D02*
X0043222Y0030808D01*
X0045524Y0028506D01*
X0045524Y0023902D01*
X0043222Y0021600D01*
X0036316Y0021600D01*
X0050128Y0021600D02*
X0059335Y0030808D01*
X0063939Y0028506D02*
X0063939Y0026204D01*
X0073147Y0026204D01*
X0073147Y0023902D02*
X0073147Y0028506D01*
X0070845Y0030808D01*
X0066241Y0030808D01*
X0063939Y0028506D01*
X0070845Y0021600D02*
X0073147Y0023902D01*
X0070845Y0021600D02*
X0066241Y0021600D01*
X0059335Y0021600D02*
X0050128Y0030808D01*
X0077751Y0021600D02*
X0082355Y0021600D01*
X0080053Y0021600D02*
X0080053Y0035412D01*
X0082355Y0035412D01*
X0089261Y0030808D02*
X0086959Y0028506D01*
X0086959Y0021600D01*
X0093865Y0021600D01*
X0096167Y0023902D01*
X0093865Y0026204D01*
X0086959Y0026204D01*
X0089261Y0030808D02*
X0093865Y0030808D01*
X0100771Y0033110D02*
X0100771Y0028506D01*
X0103073Y0026204D01*
X0103073Y0030808D01*
X0107677Y0030808D01*
X0107677Y0026204D01*
X0103073Y0026204D01*
X0100771Y0023902D02*
X0103073Y0021600D01*
X0107677Y0021600D01*
X0109979Y0023902D01*
X0109979Y0033110D01*
X0107677Y0035412D01*
X0103073Y0035412D01*
X0100771Y0033110D01*
X0336762Y0022912D02*
X0336762Y0009100D01*
X0343668Y0009100D01*
X0345970Y0011402D01*
X0345970Y0016006D01*
X0343668Y0018308D01*
X0336762Y0018308D01*
X0350574Y0018308D02*
X0352876Y0018308D01*
X0357480Y0013704D01*
X0357480Y0009100D02*
X0357480Y0018308D01*
X0362084Y0016006D02*
X0362084Y0009100D01*
X0368990Y0009100D01*
X0371292Y0011402D01*
X0368990Y0013704D01*
X0362084Y0013704D01*
X0362084Y0016006D02*
X0364386Y0018308D01*
X0368990Y0018308D01*
X0375896Y0016006D02*
X0378198Y0018308D01*
X0382802Y0018308D01*
X0385104Y0016006D01*
X0385104Y0011402D01*
X0382802Y0009100D01*
X0378198Y0009100D01*
X0375896Y0011402D01*
X0375896Y0016006D01*
X0389708Y0016006D02*
X0389708Y0011402D01*
X0392010Y0009100D01*
X0398915Y0009100D01*
X0398915Y0022912D01*
X0398915Y0018308D02*
X0392010Y0018308D01*
X0389708Y0016006D01*
X0403519Y0018308D02*
X0403519Y0006798D01*
X0405821Y0004496D01*
X0408123Y0004496D01*
X0410425Y0009100D02*
X0403519Y0009100D01*
X0410425Y0009100D02*
X0412727Y0011402D01*
X0412727Y0018308D01*
X0417331Y0016006D02*
X0417331Y0013704D01*
X0426539Y0013704D01*
X0426539Y0011402D02*
X0426539Y0016006D01*
X0424237Y0018308D01*
X0419633Y0018308D01*
X0417331Y0016006D01*
X0419633Y0009100D02*
X0424237Y0009100D01*
X0426539Y0011402D01*
X0431143Y0009100D02*
X0438049Y0013704D01*
X0431143Y0018308D01*
X0438049Y0022912D02*
X0438049Y0009100D01*
X0456465Y0009100D02*
X0461069Y0009100D01*
X0458767Y0009100D02*
X0458767Y0018308D01*
X0461069Y0018308D01*
X0465672Y0016006D02*
X0465672Y0009100D01*
X0474880Y0009100D02*
X0474880Y0018308D01*
X0467974Y0018308D01*
X0465672Y0016006D01*
X0479484Y0009100D02*
X0484088Y0009100D01*
X0481786Y0009100D02*
X0481786Y0018308D01*
X0484088Y0018308D01*
X0488692Y0016006D02*
X0488692Y0009100D01*
X0493296Y0009100D02*
X0493296Y0016006D01*
X0490994Y0018308D01*
X0488692Y0016006D01*
X0493296Y0016006D02*
X0495598Y0018308D01*
X0497900Y0018308D01*
X0497900Y0009100D01*
X0481786Y0022912D02*
X0481786Y0025214D01*
X0484088Y0029100D02*
X0477182Y0029100D01*
X0477182Y0036006D01*
X0479484Y0038308D01*
X0484088Y0038308D01*
X0484088Y0033704D02*
X0477182Y0033704D01*
X0472578Y0031402D02*
X0472578Y0036006D01*
X0470276Y0038308D01*
X0463371Y0038308D01*
X0458767Y0038308D02*
X0456465Y0038308D01*
X0456465Y0029100D01*
X0458767Y0029100D02*
X0454163Y0029100D01*
X0449559Y0031402D02*
X0447257Y0029100D01*
X0442653Y0029100D01*
X0440351Y0031402D01*
X0440351Y0036006D01*
X0442653Y0038308D01*
X0447257Y0038308D01*
X0449559Y0036006D01*
X0449559Y0031402D01*
X0458767Y0025214D02*
X0458767Y0022912D01*
X0463371Y0029100D02*
X0470276Y0029100D01*
X0472578Y0031402D01*
X0463371Y0029100D02*
X0463371Y0042912D01*
X0456465Y0042912D02*
X0456465Y0045214D01*
X0484088Y0033704D02*
X0486390Y0031402D01*
X0484088Y0029100D01*
X0490994Y0038308D02*
X0493296Y0038308D01*
X0497900Y0033704D01*
X0497900Y0029100D02*
X0497900Y0038308D01*
X0421935Y0038308D02*
X0419633Y0036006D01*
X0415029Y0036006D01*
X0412727Y0033704D01*
X0412727Y0031402D01*
X0415029Y0029100D01*
X0419633Y0029100D01*
X0421935Y0031402D01*
X0421935Y0033704D01*
X0419633Y0036006D01*
X0421935Y0038308D02*
X0421935Y0040610D01*
X0419633Y0042912D01*
X0415029Y0042912D01*
X0412727Y0040610D01*
X0412727Y0038308D01*
X0415029Y0036006D01*
X0408123Y0036006D02*
X0403519Y0040610D01*
X0398915Y0042912D01*
X0394312Y0038308D02*
X0394312Y0029100D01*
X0398915Y0031402D02*
X0398915Y0033704D01*
X0401217Y0036006D01*
X0408123Y0036006D01*
X0408123Y0031402D01*
X0405821Y0029100D01*
X0401217Y0029100D01*
X0398915Y0031402D01*
X0394312Y0033704D02*
X0389708Y0038308D01*
X0387406Y0038308D01*
X0382802Y0033704D02*
X0375896Y0038308D01*
X0382802Y0042912D02*
X0382802Y0029100D01*
X0382802Y0033704D02*
X0375896Y0029100D01*
M02*
