G75*
%MOIN*%
%OFA0B0*%
%FSLAX25Y25*%
%IPPOS*%
%LPD*%
%AMOC8*
5,1,8,0,0,1.08239X$1,22.5*
%
%ADD10C,0.00000*%
D10*
X0026000Y0001000D02*
X0491000Y0001000D01*
X0491604Y0001007D01*
X0492208Y0001029D01*
X0492811Y0001066D01*
X0493413Y0001117D01*
X0494013Y0001182D01*
X0494612Y0001262D01*
X0495209Y0001357D01*
X0495803Y0001466D01*
X0496395Y0001589D01*
X0496983Y0001726D01*
X0497568Y0001878D01*
X0498149Y0002044D01*
X0498725Y0002224D01*
X0499298Y0002417D01*
X0499865Y0002625D01*
X0500427Y0002846D01*
X0500984Y0003080D01*
X0501535Y0003328D01*
X0502080Y0003589D01*
X0502618Y0003864D01*
X0503150Y0004151D01*
X0503674Y0004451D01*
X0504191Y0004763D01*
X0504700Y0005088D01*
X0505202Y0005425D01*
X0505695Y0005775D01*
X0506179Y0006136D01*
X0506655Y0006508D01*
X0507121Y0006892D01*
X0507578Y0007287D01*
X0508025Y0007693D01*
X0508463Y0008110D01*
X0508890Y0008537D01*
X0509307Y0008975D01*
X0509713Y0009422D01*
X0510108Y0009879D01*
X0510492Y0010345D01*
X0510864Y0010821D01*
X0511225Y0011305D01*
X0511575Y0011798D01*
X0511912Y0012300D01*
X0512237Y0012809D01*
X0512549Y0013326D01*
X0512849Y0013850D01*
X0513136Y0014382D01*
X0513411Y0014920D01*
X0513672Y0015465D01*
X0513920Y0016016D01*
X0514154Y0016573D01*
X0514375Y0017135D01*
X0514583Y0017702D01*
X0514776Y0018275D01*
X0514956Y0018851D01*
X0515122Y0019432D01*
X0515274Y0020017D01*
X0515411Y0020605D01*
X0515534Y0021197D01*
X0515643Y0021791D01*
X0515738Y0022388D01*
X0515818Y0022987D01*
X0515883Y0023587D01*
X0515934Y0024189D01*
X0515971Y0024792D01*
X0515993Y0025396D01*
X0516000Y0026000D01*
X0516000Y0251000D01*
X0515993Y0251604D01*
X0515971Y0252208D01*
X0515934Y0252811D01*
X0515883Y0253413D01*
X0515818Y0254013D01*
X0515738Y0254612D01*
X0515643Y0255209D01*
X0515534Y0255803D01*
X0515411Y0256395D01*
X0515274Y0256983D01*
X0515122Y0257568D01*
X0514956Y0258149D01*
X0514776Y0258725D01*
X0514583Y0259298D01*
X0514375Y0259865D01*
X0514154Y0260427D01*
X0513920Y0260984D01*
X0513672Y0261535D01*
X0513411Y0262080D01*
X0513136Y0262618D01*
X0512849Y0263150D01*
X0512549Y0263674D01*
X0512237Y0264191D01*
X0511912Y0264700D01*
X0511575Y0265202D01*
X0511225Y0265695D01*
X0510864Y0266179D01*
X0510492Y0266655D01*
X0510108Y0267121D01*
X0509713Y0267578D01*
X0509307Y0268025D01*
X0508890Y0268463D01*
X0508463Y0268890D01*
X0508025Y0269307D01*
X0507578Y0269713D01*
X0507121Y0270108D01*
X0506655Y0270492D01*
X0506179Y0270864D01*
X0505695Y0271225D01*
X0505202Y0271575D01*
X0504700Y0271912D01*
X0504191Y0272237D01*
X0503674Y0272549D01*
X0503150Y0272849D01*
X0502618Y0273136D01*
X0502080Y0273411D01*
X0501535Y0273672D01*
X0500984Y0273920D01*
X0500427Y0274154D01*
X0499865Y0274375D01*
X0499298Y0274583D01*
X0498725Y0274776D01*
X0498149Y0274956D01*
X0497568Y0275122D01*
X0496983Y0275274D01*
X0496395Y0275411D01*
X0495803Y0275534D01*
X0495209Y0275643D01*
X0494612Y0275738D01*
X0494013Y0275818D01*
X0493413Y0275883D01*
X0492811Y0275934D01*
X0492208Y0275971D01*
X0491604Y0275993D01*
X0491000Y0276000D01*
X0026000Y0276000D01*
X0025396Y0275993D01*
X0024792Y0275971D01*
X0024189Y0275934D01*
X0023587Y0275883D01*
X0022987Y0275818D01*
X0022388Y0275738D01*
X0021791Y0275643D01*
X0021197Y0275534D01*
X0020605Y0275411D01*
X0020017Y0275274D01*
X0019432Y0275122D01*
X0018851Y0274956D01*
X0018275Y0274776D01*
X0017702Y0274583D01*
X0017135Y0274375D01*
X0016573Y0274154D01*
X0016016Y0273920D01*
X0015465Y0273672D01*
X0014920Y0273411D01*
X0014382Y0273136D01*
X0013850Y0272849D01*
X0013326Y0272549D01*
X0012809Y0272237D01*
X0012300Y0271912D01*
X0011798Y0271575D01*
X0011305Y0271225D01*
X0010821Y0270864D01*
X0010345Y0270492D01*
X0009879Y0270108D01*
X0009422Y0269713D01*
X0008975Y0269307D01*
X0008537Y0268890D01*
X0008110Y0268463D01*
X0007693Y0268025D01*
X0007287Y0267578D01*
X0006892Y0267121D01*
X0006508Y0266655D01*
X0006136Y0266179D01*
X0005775Y0265695D01*
X0005425Y0265202D01*
X0005088Y0264700D01*
X0004763Y0264191D01*
X0004451Y0263674D01*
X0004151Y0263150D01*
X0003864Y0262618D01*
X0003589Y0262080D01*
X0003328Y0261535D01*
X0003080Y0260984D01*
X0002846Y0260427D01*
X0002625Y0259865D01*
X0002417Y0259298D01*
X0002224Y0258725D01*
X0002044Y0258149D01*
X0001878Y0257568D01*
X0001726Y0256983D01*
X0001589Y0256395D01*
X0001466Y0255803D01*
X0001357Y0255209D01*
X0001262Y0254612D01*
X0001182Y0254013D01*
X0001117Y0253413D01*
X0001066Y0252811D01*
X0001029Y0252208D01*
X0001007Y0251604D01*
X0001000Y0251000D01*
X0001000Y0026000D01*
X0001007Y0025396D01*
X0001029Y0024792D01*
X0001066Y0024189D01*
X0001117Y0023587D01*
X0001182Y0022987D01*
X0001262Y0022388D01*
X0001357Y0021791D01*
X0001466Y0021197D01*
X0001589Y0020605D01*
X0001726Y0020017D01*
X0001878Y0019432D01*
X0002044Y0018851D01*
X0002224Y0018275D01*
X0002417Y0017702D01*
X0002625Y0017135D01*
X0002846Y0016573D01*
X0003080Y0016016D01*
X0003328Y0015465D01*
X0003589Y0014920D01*
X0003864Y0014382D01*
X0004151Y0013850D01*
X0004451Y0013326D01*
X0004763Y0012809D01*
X0005088Y0012300D01*
X0005425Y0011798D01*
X0005775Y0011305D01*
X0006136Y0010821D01*
X0006508Y0010345D01*
X0006892Y0009879D01*
X0007287Y0009422D01*
X0007693Y0008975D01*
X0008110Y0008537D01*
X0008537Y0008110D01*
X0008975Y0007693D01*
X0009422Y0007287D01*
X0009879Y0006892D01*
X0010345Y0006508D01*
X0010821Y0006136D01*
X0011305Y0005775D01*
X0011798Y0005425D01*
X0012300Y0005088D01*
X0012809Y0004763D01*
X0013326Y0004451D01*
X0013850Y0004151D01*
X0014382Y0003864D01*
X0014920Y0003589D01*
X0015465Y0003328D01*
X0016016Y0003080D01*
X0016573Y0002846D01*
X0017135Y0002625D01*
X0017702Y0002417D01*
X0018275Y0002224D01*
X0018851Y0002044D01*
X0019432Y0001878D01*
X0020017Y0001726D01*
X0020605Y0001589D01*
X0021197Y0001466D01*
X0021791Y0001357D01*
X0022388Y0001262D01*
X0022987Y0001182D01*
X0023587Y0001117D01*
X0024189Y0001066D01*
X0024792Y0001029D01*
X0025396Y0001007D01*
X0026000Y0001000D01*
M02*
