G75*
%MOIN*%
%OFA0B0*%
%FSLAX25Y25*%
%IPPOS*%
%LPD*%
%AMOC8*
5,1,8,0,0,1.08239X$1,22.5*
%
%ADD10C,0.05952*%
%ADD11C,0.04003*%
%ADD12C,0.04059*%
%ADD13C,0.06406*%
D10*
X0013171Y0048026D02*
X0013987Y0048244D01*
X0013171Y0048026D02*
X0013155Y0048084D01*
X0013971Y0048302D01*
X0013987Y0048244D01*
X0009401Y0065357D02*
X0008585Y0065139D01*
X0008569Y0065197D01*
X0009385Y0065415D01*
X0009401Y0065357D01*
X0013171Y0083026D02*
X0013987Y0083244D01*
X0013171Y0083026D02*
X0013155Y0083084D01*
X0013971Y0083302D01*
X0013987Y0083244D01*
X0040529Y0073698D02*
X0041345Y0073916D01*
X0040529Y0073698D02*
X0040513Y0073756D01*
X0041329Y0073974D01*
X0041345Y0073916D01*
X0056921Y0083026D02*
X0057737Y0083244D01*
X0056921Y0083026D02*
X0056905Y0083084D01*
X0057721Y0083302D01*
X0057737Y0083244D01*
X0045931Y0091803D02*
X0045115Y0091585D01*
X0045099Y0091643D01*
X0045915Y0091861D01*
X0045931Y0091803D01*
X0052335Y0100139D02*
X0053151Y0100357D01*
X0052335Y0100139D02*
X0052319Y0100197D01*
X0053135Y0100415D01*
X0053151Y0100357D01*
X0041345Y0108916D02*
X0040529Y0108698D01*
X0040513Y0108756D01*
X0041329Y0108974D01*
X0041345Y0108916D01*
X0049421Y0118026D02*
X0050237Y0118244D01*
X0049421Y0118026D02*
X0049405Y0118084D01*
X0050221Y0118302D01*
X0050237Y0118244D01*
X0047181Y0126803D02*
X0046365Y0126585D01*
X0046349Y0126643D01*
X0047165Y0126861D01*
X0047181Y0126803D01*
X0044835Y0135139D02*
X0045651Y0135357D01*
X0044835Y0135139D02*
X0044819Y0135197D01*
X0045635Y0135415D01*
X0045651Y0135357D01*
X0042595Y0143916D02*
X0041779Y0143698D01*
X0041763Y0143756D01*
X0042579Y0143974D01*
X0042595Y0143916D01*
X0032737Y0153244D02*
X0031921Y0153026D01*
X0031905Y0153084D01*
X0032721Y0153302D01*
X0032737Y0153244D01*
X0028151Y0170357D02*
X0027335Y0170139D01*
X0027319Y0170197D01*
X0028135Y0170415D01*
X0028151Y0170357D01*
X0015237Y0188244D02*
X0014421Y0188026D01*
X0014405Y0188084D01*
X0015221Y0188302D01*
X0015237Y0188244D01*
X0010651Y0205357D02*
X0009835Y0205139D01*
X0009819Y0205197D01*
X0010635Y0205415D01*
X0010651Y0205357D01*
X0014421Y0223026D02*
X0015237Y0223244D01*
X0014421Y0223026D02*
X0014405Y0223084D01*
X0015221Y0223302D01*
X0015237Y0223244D01*
X0010651Y0240357D02*
X0009835Y0240139D01*
X0009819Y0240197D01*
X0010635Y0240415D01*
X0010651Y0240357D01*
X0041779Y0248698D02*
X0042595Y0248916D01*
X0041779Y0248698D02*
X0041763Y0248756D01*
X0042579Y0248974D01*
X0042595Y0248916D01*
X0062335Y0240139D02*
X0063151Y0240357D01*
X0062335Y0240139D02*
X0062319Y0240197D01*
X0063135Y0240415D01*
X0063151Y0240357D01*
X0047181Y0231803D02*
X0046365Y0231585D01*
X0046349Y0231643D01*
X0047165Y0231861D01*
X0047181Y0231803D01*
X0066921Y0223026D02*
X0067737Y0223244D01*
X0066921Y0223026D02*
X0066905Y0223084D01*
X0067721Y0223302D01*
X0067737Y0223244D01*
X0042595Y0213916D02*
X0041779Y0213698D01*
X0041763Y0213756D01*
X0042579Y0213974D01*
X0042595Y0213916D01*
X0062335Y0205139D02*
X0063151Y0205357D01*
X0062335Y0205139D02*
X0062319Y0205197D01*
X0063135Y0205415D01*
X0063151Y0205357D01*
X0047181Y0196803D02*
X0046365Y0196585D01*
X0046349Y0196643D01*
X0047165Y0196861D01*
X0047181Y0196803D01*
X0066921Y0188026D02*
X0067737Y0188244D01*
X0066921Y0188026D02*
X0066905Y0188084D01*
X0067721Y0188302D01*
X0067737Y0188244D01*
X0060095Y0178916D02*
X0059279Y0178698D01*
X0059263Y0178756D01*
X0060079Y0178974D01*
X0060095Y0178916D01*
X0062335Y0170139D02*
X0063151Y0170357D01*
X0062335Y0170139D02*
X0062319Y0170197D01*
X0063135Y0170415D01*
X0063151Y0170357D01*
X0064681Y0161803D02*
X0063865Y0161585D01*
X0063849Y0161643D01*
X0064665Y0161861D01*
X0064681Y0161803D01*
X0066921Y0153026D02*
X0067737Y0153244D01*
X0066921Y0153026D02*
X0066905Y0153084D01*
X0067721Y0153302D01*
X0067737Y0153244D01*
X0076779Y0143698D02*
X0077595Y0143916D01*
X0076779Y0143698D02*
X0076763Y0143756D01*
X0077579Y0143974D01*
X0077595Y0143916D01*
X0079835Y0135139D02*
X0080651Y0135357D01*
X0079835Y0135139D02*
X0079819Y0135197D01*
X0080635Y0135415D01*
X0080651Y0135357D01*
X0082181Y0126803D02*
X0081365Y0126585D01*
X0081349Y0126643D01*
X0082165Y0126861D01*
X0082181Y0126803D01*
X0084421Y0118026D02*
X0085237Y0118244D01*
X0084421Y0118026D02*
X0084405Y0118084D01*
X0085221Y0118302D01*
X0085237Y0118244D01*
X0085095Y0108916D02*
X0084279Y0108698D01*
X0084263Y0108756D01*
X0085079Y0108974D01*
X0085095Y0108916D01*
X0087335Y0100139D02*
X0088151Y0100357D01*
X0087335Y0100139D02*
X0087319Y0100197D01*
X0088135Y0100415D01*
X0088151Y0100357D01*
X0089681Y0091803D02*
X0088865Y0091585D01*
X0088849Y0091643D01*
X0089665Y0091861D01*
X0089681Y0091803D01*
X0091921Y0083026D02*
X0092737Y0083244D01*
X0091921Y0083026D02*
X0091905Y0083084D01*
X0092721Y0083302D01*
X0092737Y0083244D01*
X0101779Y0073698D02*
X0102595Y0073916D01*
X0101779Y0073698D02*
X0101763Y0073756D01*
X0102579Y0073974D01*
X0102595Y0073916D01*
X0104835Y0065139D02*
X0105651Y0065357D01*
X0104835Y0065139D02*
X0104819Y0065197D01*
X0105635Y0065415D01*
X0105651Y0065357D01*
X0107181Y0056803D02*
X0106365Y0056585D01*
X0106349Y0056643D01*
X0107165Y0056861D01*
X0107181Y0056803D01*
X0109421Y0048026D02*
X0110237Y0048244D01*
X0109421Y0048026D02*
X0109405Y0048084D01*
X0110221Y0048302D01*
X0110237Y0048244D01*
X0141365Y0056585D02*
X0142181Y0056803D01*
X0141365Y0056585D02*
X0141349Y0056643D01*
X0142165Y0056861D01*
X0142181Y0056803D01*
X0139835Y0065139D02*
X0140651Y0065357D01*
X0139835Y0065139D02*
X0139819Y0065197D01*
X0140635Y0065415D01*
X0140651Y0065357D01*
X0137595Y0073916D02*
X0136779Y0073698D01*
X0136763Y0073756D01*
X0137579Y0073974D01*
X0137595Y0073916D01*
X0127737Y0083244D02*
X0126921Y0083026D01*
X0126905Y0083084D01*
X0127721Y0083302D01*
X0127737Y0083244D01*
X0124681Y0091803D02*
X0123865Y0091585D01*
X0123849Y0091643D01*
X0124665Y0091861D01*
X0124681Y0091803D01*
X0122335Y0100139D02*
X0123151Y0100357D01*
X0122335Y0100139D02*
X0122319Y0100197D01*
X0123135Y0100415D01*
X0123151Y0100357D01*
X0120095Y0108916D02*
X0119279Y0108698D01*
X0119263Y0108756D01*
X0120079Y0108974D01*
X0120095Y0108916D01*
X0119421Y0118026D02*
X0120237Y0118244D01*
X0119421Y0118026D02*
X0119405Y0118084D01*
X0120221Y0118302D01*
X0120237Y0118244D01*
X0117181Y0126803D02*
X0116365Y0126585D01*
X0116349Y0126643D01*
X0117165Y0126861D01*
X0117181Y0126803D01*
X0114835Y0135139D02*
X0115651Y0135357D01*
X0114835Y0135139D02*
X0114819Y0135197D01*
X0115635Y0135415D01*
X0115651Y0135357D01*
X0112595Y0143916D02*
X0111779Y0143698D01*
X0111763Y0143756D01*
X0112579Y0143974D01*
X0112595Y0143916D01*
X0102737Y0153244D02*
X0101921Y0153026D01*
X0101905Y0153084D01*
X0102721Y0153302D01*
X0102737Y0153244D01*
X0099681Y0161803D02*
X0098865Y0161585D01*
X0098849Y0161643D01*
X0099665Y0161861D01*
X0099681Y0161803D01*
X0097335Y0170139D02*
X0098151Y0170357D01*
X0097335Y0170139D02*
X0097319Y0170197D01*
X0098135Y0170415D01*
X0098151Y0170357D01*
X0095095Y0178916D02*
X0094279Y0178698D01*
X0094263Y0178756D01*
X0095079Y0178974D01*
X0095095Y0178916D01*
X0101921Y0188026D02*
X0102737Y0188244D01*
X0101921Y0188026D02*
X0101905Y0188084D01*
X0102721Y0188302D01*
X0102737Y0188244D01*
X0099681Y0196803D02*
X0098865Y0196585D01*
X0098849Y0196643D01*
X0099665Y0196861D01*
X0099681Y0196803D01*
X0097335Y0205139D02*
X0098151Y0205357D01*
X0097335Y0205139D02*
X0097319Y0205197D01*
X0098135Y0205415D01*
X0098151Y0205357D01*
X0095095Y0213916D02*
X0094279Y0213698D01*
X0094263Y0213756D01*
X0095079Y0213974D01*
X0095095Y0213916D01*
X0101921Y0223026D02*
X0102737Y0223244D01*
X0101921Y0223026D02*
X0101905Y0223084D01*
X0102721Y0223302D01*
X0102737Y0223244D01*
X0099681Y0231803D02*
X0098865Y0231585D01*
X0098849Y0231643D01*
X0099665Y0231861D01*
X0099681Y0231803D01*
X0097335Y0240139D02*
X0098151Y0240357D01*
X0097335Y0240139D02*
X0097319Y0240197D01*
X0098135Y0240415D01*
X0098151Y0240357D01*
X0095095Y0248916D02*
X0094279Y0248698D01*
X0094263Y0248756D01*
X0095079Y0248974D01*
X0095095Y0248916D01*
X0129279Y0248698D02*
X0130095Y0248916D01*
X0129279Y0248698D02*
X0129263Y0248756D01*
X0130079Y0248974D01*
X0130095Y0248916D01*
X0134681Y0231803D02*
X0133865Y0231585D01*
X0133849Y0231643D01*
X0134665Y0231861D01*
X0134681Y0231803D01*
X0130095Y0213916D02*
X0129279Y0213698D01*
X0129263Y0213756D01*
X0130079Y0213974D01*
X0130095Y0213916D01*
X0134681Y0196803D02*
X0133865Y0196585D01*
X0133849Y0196643D01*
X0134665Y0196861D01*
X0134681Y0196803D01*
X0130095Y0178916D02*
X0129279Y0178698D01*
X0129263Y0178756D01*
X0130079Y0178974D01*
X0130095Y0178916D01*
X0132335Y0170139D02*
X0133151Y0170357D01*
X0132335Y0170139D02*
X0132319Y0170197D01*
X0133135Y0170415D01*
X0133151Y0170357D01*
X0134681Y0161803D02*
X0133865Y0161585D01*
X0133849Y0161643D01*
X0134665Y0161861D01*
X0134681Y0161803D01*
X0136921Y0153026D02*
X0137737Y0153244D01*
X0136921Y0153026D02*
X0136905Y0153084D01*
X0137721Y0153302D01*
X0137737Y0153244D01*
X0146779Y0143698D02*
X0147595Y0143916D01*
X0146779Y0143698D02*
X0146763Y0143756D01*
X0147579Y0143974D01*
X0147595Y0143916D01*
X0149835Y0135139D02*
X0150651Y0135357D01*
X0149835Y0135139D02*
X0149819Y0135197D01*
X0150635Y0135415D01*
X0150651Y0135357D01*
X0152181Y0126803D02*
X0151365Y0126585D01*
X0151349Y0126643D01*
X0152165Y0126861D01*
X0152181Y0126803D01*
X0154421Y0118026D02*
X0155237Y0118244D01*
X0154421Y0118026D02*
X0154405Y0118084D01*
X0155221Y0118302D01*
X0155237Y0118244D01*
X0155095Y0108916D02*
X0154279Y0108698D01*
X0154263Y0108756D01*
X0155079Y0108974D01*
X0155095Y0108916D01*
X0157335Y0100139D02*
X0158151Y0100357D01*
X0157335Y0100139D02*
X0157319Y0100197D01*
X0158135Y0100415D01*
X0158151Y0100357D01*
X0159681Y0091803D02*
X0158865Y0091585D01*
X0158849Y0091643D01*
X0159665Y0091861D01*
X0159681Y0091803D01*
X0161921Y0083026D02*
X0162737Y0083244D01*
X0161921Y0083026D02*
X0161905Y0083084D01*
X0162721Y0083302D01*
X0162737Y0083244D01*
X0171779Y0073698D02*
X0172595Y0073916D01*
X0171779Y0073698D02*
X0171763Y0073756D01*
X0172579Y0073974D01*
X0172595Y0073916D01*
X0174835Y0065139D02*
X0175651Y0065357D01*
X0174835Y0065139D02*
X0174819Y0065197D01*
X0175635Y0065415D01*
X0175651Y0065357D01*
X0177181Y0056803D02*
X0176365Y0056585D01*
X0176349Y0056643D01*
X0177165Y0056861D01*
X0177181Y0056803D01*
X0179421Y0048026D02*
X0180237Y0048244D01*
X0179421Y0048026D02*
X0179405Y0048084D01*
X0180221Y0048302D01*
X0180237Y0048244D01*
X0211365Y0056585D02*
X0212181Y0056803D01*
X0211365Y0056585D02*
X0211349Y0056643D01*
X0212165Y0056861D01*
X0212181Y0056803D01*
X0209835Y0065139D02*
X0210651Y0065357D01*
X0209835Y0065139D02*
X0209819Y0065197D01*
X0210635Y0065415D01*
X0210651Y0065357D01*
X0207595Y0073916D02*
X0206779Y0073698D01*
X0206763Y0073756D01*
X0207579Y0073974D01*
X0207595Y0073916D01*
X0197737Y0083244D02*
X0196921Y0083026D01*
X0196905Y0083084D01*
X0197721Y0083302D01*
X0197737Y0083244D01*
X0194681Y0091803D02*
X0193865Y0091585D01*
X0193849Y0091643D01*
X0194665Y0091861D01*
X0194681Y0091803D01*
X0192335Y0100139D02*
X0193151Y0100357D01*
X0192335Y0100139D02*
X0192319Y0100197D01*
X0193135Y0100415D01*
X0193151Y0100357D01*
X0190095Y0108916D02*
X0189279Y0108698D01*
X0189263Y0108756D01*
X0190079Y0108974D01*
X0190095Y0108916D01*
X0189421Y0118026D02*
X0190237Y0118244D01*
X0189421Y0118026D02*
X0189405Y0118084D01*
X0190221Y0118302D01*
X0190237Y0118244D01*
X0187181Y0126803D02*
X0186365Y0126585D01*
X0186349Y0126643D01*
X0187165Y0126861D01*
X0187181Y0126803D01*
X0184835Y0135139D02*
X0185651Y0135357D01*
X0184835Y0135139D02*
X0184819Y0135197D01*
X0185635Y0135415D01*
X0185651Y0135357D01*
X0182595Y0143916D02*
X0181779Y0143698D01*
X0181763Y0143756D01*
X0182579Y0143974D01*
X0182595Y0143916D01*
X0172737Y0153244D02*
X0171921Y0153026D01*
X0171905Y0153084D01*
X0172721Y0153302D01*
X0172737Y0153244D01*
X0169681Y0161803D02*
X0168865Y0161585D01*
X0168849Y0161643D01*
X0169665Y0161861D01*
X0169681Y0161803D01*
X0167335Y0170139D02*
X0168151Y0170357D01*
X0167335Y0170139D02*
X0167319Y0170197D01*
X0168135Y0170415D01*
X0168151Y0170357D01*
X0165095Y0178916D02*
X0164279Y0178698D01*
X0164263Y0178756D01*
X0165079Y0178974D01*
X0165095Y0178916D01*
X0199279Y0178698D02*
X0200095Y0178916D01*
X0199279Y0178698D02*
X0199263Y0178756D01*
X0200079Y0178974D01*
X0200095Y0178916D01*
X0202335Y0170139D02*
X0203151Y0170357D01*
X0202335Y0170139D02*
X0202319Y0170197D01*
X0203135Y0170415D01*
X0203151Y0170357D01*
X0204681Y0161803D02*
X0203865Y0161585D01*
X0203849Y0161643D01*
X0204665Y0161861D01*
X0204681Y0161803D01*
X0206921Y0153026D02*
X0207737Y0153244D01*
X0206921Y0153026D02*
X0206905Y0153084D01*
X0207721Y0153302D01*
X0207737Y0153244D01*
X0216779Y0143698D02*
X0217595Y0143916D01*
X0216779Y0143698D02*
X0216763Y0143756D01*
X0217579Y0143974D01*
X0217595Y0143916D01*
X0219835Y0135139D02*
X0220651Y0135357D01*
X0219835Y0135139D02*
X0219819Y0135197D01*
X0220635Y0135415D01*
X0220651Y0135357D01*
X0222181Y0126803D02*
X0221365Y0126585D01*
X0221349Y0126643D01*
X0222165Y0126861D01*
X0222181Y0126803D01*
X0224421Y0118026D02*
X0225237Y0118244D01*
X0224421Y0118026D02*
X0224405Y0118084D01*
X0225221Y0118302D01*
X0225237Y0118244D01*
X0225095Y0108916D02*
X0224279Y0108698D01*
X0224263Y0108756D01*
X0225079Y0108974D01*
X0225095Y0108916D01*
X0227335Y0100139D02*
X0228151Y0100357D01*
X0227335Y0100139D02*
X0227319Y0100197D01*
X0228135Y0100415D01*
X0228151Y0100357D01*
X0229681Y0091803D02*
X0228865Y0091585D01*
X0228849Y0091643D01*
X0229665Y0091861D01*
X0229681Y0091803D01*
X0231921Y0083026D02*
X0232737Y0083244D01*
X0231921Y0083026D02*
X0231905Y0083084D01*
X0232721Y0083302D01*
X0232737Y0083244D01*
X0241779Y0073698D02*
X0242595Y0073916D01*
X0241779Y0073698D02*
X0241763Y0073756D01*
X0242579Y0073974D01*
X0242595Y0073916D01*
X0244835Y0065139D02*
X0245651Y0065357D01*
X0244835Y0065139D02*
X0244819Y0065197D01*
X0245635Y0065415D01*
X0245651Y0065357D01*
X0247181Y0056803D02*
X0246365Y0056585D01*
X0246349Y0056643D01*
X0247165Y0056861D01*
X0247181Y0056803D01*
X0249421Y0048026D02*
X0250237Y0048244D01*
X0249421Y0048026D02*
X0249405Y0048084D01*
X0250221Y0048302D01*
X0250237Y0048244D01*
X0273029Y0038698D02*
X0273845Y0038916D01*
X0273029Y0038698D02*
X0273013Y0038756D01*
X0273829Y0038974D01*
X0273845Y0038916D01*
X0284421Y0048026D02*
X0285237Y0048244D01*
X0284421Y0048026D02*
X0284405Y0048084D01*
X0285221Y0048302D01*
X0285237Y0048244D01*
X0282181Y0056803D02*
X0281365Y0056585D01*
X0281349Y0056643D01*
X0282165Y0056861D01*
X0282181Y0056803D01*
X0279835Y0065139D02*
X0280651Y0065357D01*
X0279835Y0065139D02*
X0279819Y0065197D01*
X0280635Y0065415D01*
X0280651Y0065357D01*
X0277595Y0073916D02*
X0276779Y0073698D01*
X0276763Y0073756D01*
X0277579Y0073974D01*
X0277595Y0073916D01*
X0267737Y0083244D02*
X0266921Y0083026D01*
X0266905Y0083084D01*
X0267721Y0083302D01*
X0267737Y0083244D01*
X0264681Y0091803D02*
X0263865Y0091585D01*
X0263849Y0091643D01*
X0264665Y0091861D01*
X0264681Y0091803D01*
X0262335Y0100139D02*
X0263151Y0100357D01*
X0262335Y0100139D02*
X0262319Y0100197D01*
X0263135Y0100415D01*
X0263151Y0100357D01*
X0260095Y0108916D02*
X0259279Y0108698D01*
X0259263Y0108756D01*
X0260079Y0108974D01*
X0260095Y0108916D01*
X0259421Y0118026D02*
X0260237Y0118244D01*
X0259421Y0118026D02*
X0259405Y0118084D01*
X0260221Y0118302D01*
X0260237Y0118244D01*
X0257181Y0126803D02*
X0256365Y0126585D01*
X0256349Y0126643D01*
X0257165Y0126861D01*
X0257181Y0126803D01*
X0254835Y0135139D02*
X0255651Y0135357D01*
X0254835Y0135139D02*
X0254819Y0135197D01*
X0255635Y0135415D01*
X0255651Y0135357D01*
X0252595Y0143916D02*
X0251779Y0143698D01*
X0251763Y0143756D01*
X0252579Y0143974D01*
X0252595Y0143916D01*
X0242737Y0153244D02*
X0241921Y0153026D01*
X0241905Y0153084D01*
X0242721Y0153302D01*
X0242737Y0153244D01*
X0239681Y0161803D02*
X0238865Y0161585D01*
X0238849Y0161643D01*
X0239665Y0161861D01*
X0239681Y0161803D01*
X0237335Y0170139D02*
X0238151Y0170357D01*
X0237335Y0170139D02*
X0237319Y0170197D01*
X0238135Y0170415D01*
X0238151Y0170357D01*
X0235095Y0178916D02*
X0234279Y0178698D01*
X0234263Y0178756D01*
X0235079Y0178974D01*
X0235095Y0178916D01*
X0269279Y0178698D02*
X0270095Y0178916D01*
X0269279Y0178698D02*
X0269263Y0178756D01*
X0270079Y0178974D01*
X0270095Y0178916D01*
X0272335Y0170139D02*
X0273151Y0170357D01*
X0272335Y0170139D02*
X0272319Y0170197D01*
X0273135Y0170415D01*
X0273151Y0170357D01*
X0274681Y0161803D02*
X0273865Y0161585D01*
X0273849Y0161643D01*
X0274665Y0161861D01*
X0274681Y0161803D01*
X0276921Y0153026D02*
X0277737Y0153244D01*
X0276921Y0153026D02*
X0276905Y0153084D01*
X0277721Y0153302D01*
X0277737Y0153244D01*
X0286779Y0143698D02*
X0287595Y0143916D01*
X0286779Y0143698D02*
X0286763Y0143756D01*
X0287579Y0143974D01*
X0287595Y0143916D01*
X0289835Y0135139D02*
X0290651Y0135357D01*
X0289835Y0135139D02*
X0289819Y0135197D01*
X0290635Y0135415D01*
X0290651Y0135357D01*
X0292181Y0126803D02*
X0291365Y0126585D01*
X0291349Y0126643D01*
X0292165Y0126861D01*
X0292181Y0126803D01*
X0294421Y0118026D02*
X0295237Y0118244D01*
X0294421Y0118026D02*
X0294405Y0118084D01*
X0295221Y0118302D01*
X0295237Y0118244D01*
X0295095Y0108916D02*
X0294279Y0108698D01*
X0294263Y0108756D01*
X0295079Y0108974D01*
X0295095Y0108916D01*
X0297335Y0100139D02*
X0298151Y0100357D01*
X0297335Y0100139D02*
X0297319Y0100197D01*
X0298135Y0100415D01*
X0298151Y0100357D01*
X0299681Y0091803D02*
X0298865Y0091585D01*
X0298849Y0091643D01*
X0299665Y0091861D01*
X0299681Y0091803D01*
X0301921Y0083026D02*
X0302737Y0083244D01*
X0301921Y0083026D02*
X0301905Y0083084D01*
X0302721Y0083302D01*
X0302737Y0083244D01*
X0311779Y0073698D02*
X0312595Y0073916D01*
X0311779Y0073698D02*
X0311763Y0073756D01*
X0312579Y0073974D01*
X0312595Y0073916D01*
X0314835Y0065139D02*
X0315651Y0065357D01*
X0314835Y0065139D02*
X0314819Y0065197D01*
X0315635Y0065415D01*
X0315651Y0065357D01*
X0317181Y0056803D02*
X0316365Y0056585D01*
X0316349Y0056643D01*
X0317165Y0056861D01*
X0317181Y0056803D01*
X0319421Y0048026D02*
X0320237Y0048244D01*
X0319421Y0048026D02*
X0319405Y0048084D01*
X0320221Y0048302D01*
X0320237Y0048244D01*
X0349835Y0065139D02*
X0350651Y0065357D01*
X0349835Y0065139D02*
X0349819Y0065197D01*
X0350635Y0065415D01*
X0350651Y0065357D01*
X0352181Y0056803D02*
X0351365Y0056585D01*
X0351349Y0056643D01*
X0352165Y0056861D01*
X0352181Y0056803D01*
X0354421Y0048026D02*
X0355237Y0048244D01*
X0354421Y0048026D02*
X0354405Y0048084D01*
X0355221Y0048302D01*
X0355237Y0048244D01*
X0386365Y0056585D02*
X0387181Y0056803D01*
X0386365Y0056585D02*
X0386349Y0056643D01*
X0387165Y0056861D01*
X0387181Y0056803D01*
X0384835Y0065139D02*
X0385651Y0065357D01*
X0384835Y0065139D02*
X0384819Y0065197D01*
X0385635Y0065415D01*
X0385651Y0065357D01*
X0382595Y0073916D02*
X0381779Y0073698D01*
X0381763Y0073756D01*
X0382579Y0073974D01*
X0382595Y0073916D01*
X0372737Y0083244D02*
X0371921Y0083026D01*
X0371905Y0083084D01*
X0372721Y0083302D01*
X0372737Y0083244D01*
X0369681Y0091803D02*
X0368865Y0091585D01*
X0368849Y0091643D01*
X0369665Y0091861D01*
X0369681Y0091803D01*
X0367335Y0100139D02*
X0368151Y0100357D01*
X0367335Y0100139D02*
X0367319Y0100197D01*
X0368135Y0100415D01*
X0368151Y0100357D01*
X0365095Y0108916D02*
X0364279Y0108698D01*
X0364263Y0108756D01*
X0365079Y0108974D01*
X0365095Y0108916D01*
X0364421Y0118026D02*
X0365237Y0118244D01*
X0364421Y0118026D02*
X0364405Y0118084D01*
X0365221Y0118302D01*
X0365237Y0118244D01*
X0362181Y0126803D02*
X0361365Y0126585D01*
X0361349Y0126643D01*
X0362165Y0126861D01*
X0362181Y0126803D01*
X0359835Y0135139D02*
X0360651Y0135357D01*
X0359835Y0135139D02*
X0359819Y0135197D01*
X0360635Y0135415D01*
X0360651Y0135357D01*
X0357595Y0143916D02*
X0356779Y0143698D01*
X0356763Y0143756D01*
X0357579Y0143974D01*
X0357595Y0143916D01*
X0347737Y0153244D02*
X0346921Y0153026D01*
X0346905Y0153084D01*
X0347721Y0153302D01*
X0347737Y0153244D01*
X0344681Y0161803D02*
X0343865Y0161585D01*
X0343849Y0161643D01*
X0344665Y0161861D01*
X0344681Y0161803D01*
X0342335Y0170139D02*
X0343151Y0170357D01*
X0342335Y0170139D02*
X0342319Y0170197D01*
X0343135Y0170415D01*
X0343151Y0170357D01*
X0340095Y0178916D02*
X0339279Y0178698D01*
X0339263Y0178756D01*
X0340079Y0178974D01*
X0340095Y0178916D01*
X0308151Y0170357D02*
X0307335Y0170139D01*
X0307319Y0170197D01*
X0308135Y0170415D01*
X0308151Y0170357D01*
X0309681Y0161803D02*
X0308865Y0161585D01*
X0308849Y0161643D01*
X0309665Y0161861D01*
X0309681Y0161803D01*
X0311921Y0153026D02*
X0312737Y0153244D01*
X0311921Y0153026D02*
X0311905Y0153084D01*
X0312721Y0153302D01*
X0312737Y0153244D01*
X0321779Y0143698D02*
X0322595Y0143916D01*
X0321779Y0143698D02*
X0321763Y0143756D01*
X0322579Y0143974D01*
X0322595Y0143916D01*
X0324835Y0135139D02*
X0325651Y0135357D01*
X0324835Y0135139D02*
X0324819Y0135197D01*
X0325635Y0135415D01*
X0325651Y0135357D01*
X0327181Y0126803D02*
X0326365Y0126585D01*
X0326349Y0126643D01*
X0327165Y0126861D01*
X0327181Y0126803D01*
X0329421Y0118026D02*
X0330237Y0118244D01*
X0329421Y0118026D02*
X0329405Y0118084D01*
X0330221Y0118302D01*
X0330237Y0118244D01*
X0330095Y0108916D02*
X0329279Y0108698D01*
X0329263Y0108756D01*
X0330079Y0108974D01*
X0330095Y0108916D01*
X0332335Y0100139D02*
X0333151Y0100357D01*
X0332335Y0100139D02*
X0332319Y0100197D01*
X0333135Y0100415D01*
X0333151Y0100357D01*
X0334681Y0091803D02*
X0333865Y0091585D01*
X0333849Y0091643D01*
X0334665Y0091861D01*
X0334681Y0091803D01*
X0336921Y0083026D02*
X0337737Y0083244D01*
X0336921Y0083026D02*
X0336905Y0083084D01*
X0337721Y0083302D01*
X0337737Y0083244D01*
X0346779Y0073698D02*
X0347595Y0073916D01*
X0346779Y0073698D02*
X0346763Y0073756D01*
X0347579Y0073974D01*
X0347595Y0073916D01*
X0389421Y0048026D02*
X0390237Y0048244D01*
X0389421Y0048026D02*
X0389405Y0048084D01*
X0390221Y0048302D01*
X0390237Y0048244D01*
X0421365Y0056585D02*
X0422181Y0056803D01*
X0421365Y0056585D02*
X0421349Y0056643D01*
X0422165Y0056861D01*
X0422181Y0056803D01*
X0419835Y0065139D02*
X0420651Y0065357D01*
X0419835Y0065139D02*
X0419819Y0065197D01*
X0420635Y0065415D01*
X0420651Y0065357D01*
X0417595Y0073916D02*
X0416779Y0073698D01*
X0416763Y0073756D01*
X0417579Y0073974D01*
X0417595Y0073916D01*
X0407737Y0083244D02*
X0406921Y0083026D01*
X0406905Y0083084D01*
X0407721Y0083302D01*
X0407737Y0083244D01*
X0404681Y0091803D02*
X0403865Y0091585D01*
X0403849Y0091643D01*
X0404665Y0091861D01*
X0404681Y0091803D01*
X0402335Y0100139D02*
X0403151Y0100357D01*
X0402335Y0100139D02*
X0402319Y0100197D01*
X0403135Y0100415D01*
X0403151Y0100357D01*
X0400095Y0108916D02*
X0399279Y0108698D01*
X0399263Y0108756D01*
X0400079Y0108974D01*
X0400095Y0108916D01*
X0399421Y0118026D02*
X0400237Y0118244D01*
X0399421Y0118026D02*
X0399405Y0118084D01*
X0400221Y0118302D01*
X0400237Y0118244D01*
X0397181Y0126803D02*
X0396365Y0126585D01*
X0396349Y0126643D01*
X0397165Y0126861D01*
X0397181Y0126803D01*
X0394835Y0135139D02*
X0395651Y0135357D01*
X0394835Y0135139D02*
X0394819Y0135197D01*
X0395635Y0135415D01*
X0395651Y0135357D01*
X0392595Y0143916D02*
X0391779Y0143698D01*
X0391763Y0143756D01*
X0392579Y0143974D01*
X0392595Y0143916D01*
X0382737Y0153244D02*
X0381921Y0153026D01*
X0381905Y0153084D01*
X0382721Y0153302D01*
X0382737Y0153244D01*
X0379681Y0161803D02*
X0378865Y0161585D01*
X0378849Y0161643D01*
X0379665Y0161861D01*
X0379681Y0161803D01*
X0377335Y0170139D02*
X0378151Y0170357D01*
X0377335Y0170139D02*
X0377319Y0170197D01*
X0378135Y0170415D01*
X0378151Y0170357D01*
X0375095Y0178916D02*
X0374279Y0178698D01*
X0374263Y0178756D01*
X0375079Y0178974D01*
X0375095Y0178916D01*
X0399421Y0188026D02*
X0400237Y0188244D01*
X0399421Y0188026D02*
X0399405Y0188084D01*
X0400221Y0188302D01*
X0400237Y0188244D01*
X0409279Y0178698D02*
X0410095Y0178916D01*
X0409279Y0178698D02*
X0409263Y0178756D01*
X0410079Y0178974D01*
X0410095Y0178916D01*
X0412335Y0170139D02*
X0413151Y0170357D01*
X0412335Y0170139D02*
X0412319Y0170197D01*
X0413135Y0170415D01*
X0413151Y0170357D01*
X0414681Y0161803D02*
X0413865Y0161585D01*
X0413849Y0161643D01*
X0414665Y0161861D01*
X0414681Y0161803D01*
X0416921Y0153026D02*
X0417737Y0153244D01*
X0416921Y0153026D02*
X0416905Y0153084D01*
X0417721Y0153302D01*
X0417737Y0153244D01*
X0426779Y0143698D02*
X0427595Y0143916D01*
X0426779Y0143698D02*
X0426763Y0143756D01*
X0427579Y0143974D01*
X0427595Y0143916D01*
X0429835Y0135139D02*
X0430651Y0135357D01*
X0429835Y0135139D02*
X0429819Y0135197D01*
X0430635Y0135415D01*
X0430651Y0135357D01*
X0432181Y0126803D02*
X0431365Y0126585D01*
X0431349Y0126643D01*
X0432165Y0126861D01*
X0432181Y0126803D01*
X0434421Y0118026D02*
X0435237Y0118244D01*
X0434421Y0118026D02*
X0434405Y0118084D01*
X0435221Y0118302D01*
X0435237Y0118244D01*
X0435095Y0108916D02*
X0434279Y0108698D01*
X0434263Y0108756D01*
X0435079Y0108974D01*
X0435095Y0108916D01*
X0437335Y0100139D02*
X0438151Y0100357D01*
X0437335Y0100139D02*
X0437319Y0100197D01*
X0438135Y0100415D01*
X0438151Y0100357D01*
X0439681Y0091803D02*
X0438865Y0091585D01*
X0438849Y0091643D01*
X0439665Y0091861D01*
X0439681Y0091803D01*
X0441921Y0083026D02*
X0442737Y0083244D01*
X0441921Y0083026D02*
X0441905Y0083084D01*
X0442721Y0083302D01*
X0442737Y0083244D01*
X0451779Y0073698D02*
X0452595Y0073916D01*
X0451779Y0073698D02*
X0451763Y0073756D01*
X0452579Y0073974D01*
X0452595Y0073916D01*
X0454835Y0065139D02*
X0455651Y0065357D01*
X0454835Y0065139D02*
X0454819Y0065197D01*
X0455635Y0065415D01*
X0455651Y0065357D01*
X0457181Y0056803D02*
X0456365Y0056585D01*
X0456349Y0056643D01*
X0457165Y0056861D01*
X0457181Y0056803D01*
X0459421Y0048026D02*
X0460237Y0048244D01*
X0459421Y0048026D02*
X0459405Y0048084D01*
X0460221Y0048302D01*
X0460237Y0048244D01*
X0491365Y0056585D02*
X0492181Y0056803D01*
X0491365Y0056585D02*
X0491349Y0056643D01*
X0492165Y0056861D01*
X0492181Y0056803D01*
X0487595Y0073916D02*
X0486779Y0073698D01*
X0486763Y0073756D01*
X0487579Y0073974D01*
X0487595Y0073916D01*
X0477737Y0083244D02*
X0476921Y0083026D01*
X0476905Y0083084D01*
X0477721Y0083302D01*
X0477737Y0083244D01*
X0474681Y0091803D02*
X0473865Y0091585D01*
X0473849Y0091643D01*
X0474665Y0091861D01*
X0474681Y0091803D01*
X0472335Y0100139D02*
X0473151Y0100357D01*
X0472335Y0100139D02*
X0472319Y0100197D01*
X0473135Y0100415D01*
X0473151Y0100357D01*
X0470095Y0108916D02*
X0469279Y0108698D01*
X0469263Y0108756D01*
X0470079Y0108974D01*
X0470095Y0108916D01*
X0469421Y0118026D02*
X0470237Y0118244D01*
X0469421Y0118026D02*
X0469405Y0118084D01*
X0470221Y0118302D01*
X0470237Y0118244D01*
X0467181Y0126803D02*
X0466365Y0126585D01*
X0466349Y0126643D01*
X0467165Y0126861D01*
X0467181Y0126803D01*
X0464835Y0135139D02*
X0465651Y0135357D01*
X0464835Y0135139D02*
X0464819Y0135197D01*
X0465635Y0135415D01*
X0465651Y0135357D01*
X0462595Y0143916D02*
X0461779Y0143698D01*
X0461763Y0143756D01*
X0462579Y0143974D01*
X0462595Y0143916D01*
X0452737Y0153244D02*
X0451921Y0153026D01*
X0451905Y0153084D01*
X0452721Y0153302D01*
X0452737Y0153244D01*
X0449681Y0161803D02*
X0448865Y0161585D01*
X0448849Y0161643D01*
X0449665Y0161861D01*
X0449681Y0161803D01*
X0447335Y0170139D02*
X0448151Y0170357D01*
X0447335Y0170139D02*
X0447319Y0170197D01*
X0448135Y0170415D01*
X0448151Y0170357D01*
X0445095Y0178916D02*
X0444279Y0178698D01*
X0444263Y0178756D01*
X0445079Y0178974D01*
X0445095Y0178916D01*
X0435237Y0188244D02*
X0434421Y0188026D01*
X0434405Y0188084D01*
X0435221Y0188302D01*
X0435237Y0188244D01*
X0432181Y0196803D02*
X0431365Y0196585D01*
X0431349Y0196643D01*
X0432165Y0196861D01*
X0432181Y0196803D01*
X0429835Y0205139D02*
X0430651Y0205357D01*
X0429835Y0205139D02*
X0429819Y0205197D01*
X0430635Y0205415D01*
X0430651Y0205357D01*
X0427595Y0213916D02*
X0426779Y0213698D01*
X0426763Y0213756D01*
X0427579Y0213974D01*
X0427595Y0213916D01*
X0434421Y0223026D02*
X0435237Y0223244D01*
X0434421Y0223026D02*
X0434405Y0223084D01*
X0435221Y0223302D01*
X0435237Y0223244D01*
X0432181Y0231803D02*
X0431365Y0231585D01*
X0431349Y0231643D01*
X0432165Y0231861D01*
X0432181Y0231803D01*
X0429835Y0240139D02*
X0430651Y0240357D01*
X0429835Y0240139D02*
X0429819Y0240197D01*
X0430635Y0240415D01*
X0430651Y0240357D01*
X0427595Y0248916D02*
X0426779Y0248698D01*
X0426763Y0248756D01*
X0427579Y0248974D01*
X0427595Y0248916D01*
X0395651Y0240357D02*
X0394835Y0240139D01*
X0394819Y0240197D01*
X0395635Y0240415D01*
X0395651Y0240357D01*
X0400237Y0223244D02*
X0399421Y0223026D01*
X0399405Y0223084D01*
X0400221Y0223302D01*
X0400237Y0223244D01*
X0395651Y0205357D02*
X0394835Y0205139D01*
X0394819Y0205197D01*
X0395635Y0205415D01*
X0395651Y0205357D01*
X0461779Y0213698D02*
X0462595Y0213916D01*
X0461779Y0213698D02*
X0461763Y0213756D01*
X0462579Y0213974D01*
X0462595Y0213916D01*
X0464835Y0205139D02*
X0465651Y0205357D01*
X0464835Y0205139D02*
X0464819Y0205197D01*
X0465635Y0205415D01*
X0465651Y0205357D01*
X0467181Y0196803D02*
X0466365Y0196585D01*
X0466349Y0196643D01*
X0467165Y0196861D01*
X0467181Y0196803D01*
X0469421Y0188026D02*
X0470237Y0188244D01*
X0469421Y0188026D02*
X0469405Y0188084D01*
X0470221Y0188302D01*
X0470237Y0188244D01*
X0479279Y0178698D02*
X0480095Y0178916D01*
X0479279Y0178698D02*
X0479263Y0178756D01*
X0480079Y0178974D01*
X0480095Y0178916D01*
X0484681Y0161803D02*
X0483865Y0161585D01*
X0483849Y0161643D01*
X0484665Y0161861D01*
X0484681Y0161803D01*
X0496779Y0143698D02*
X0497595Y0143916D01*
X0496779Y0143698D02*
X0496763Y0143756D01*
X0497579Y0143974D01*
X0497595Y0143916D01*
X0502181Y0126803D02*
X0501365Y0126585D01*
X0501349Y0126643D01*
X0502165Y0126861D01*
X0502181Y0126803D01*
X0505095Y0108916D02*
X0504279Y0108698D01*
X0504263Y0108756D01*
X0505079Y0108974D01*
X0505095Y0108916D01*
X0509681Y0091803D02*
X0508865Y0091585D01*
X0508849Y0091643D01*
X0509665Y0091861D01*
X0509681Y0091803D01*
X0425237Y0048244D02*
X0424421Y0048026D01*
X0424405Y0048084D01*
X0425221Y0048302D01*
X0425237Y0048244D01*
X0278431Y0021803D02*
X0277615Y0021585D01*
X0277599Y0021643D01*
X0278415Y0021861D01*
X0278431Y0021803D01*
X0246487Y0013244D02*
X0245671Y0013026D01*
X0245655Y0013084D01*
X0246471Y0013302D01*
X0246487Y0013244D01*
X0241901Y0030357D02*
X0241085Y0030139D01*
X0241069Y0030197D01*
X0241885Y0030415D01*
X0241901Y0030357D01*
X0215237Y0048244D02*
X0214421Y0048026D01*
X0214405Y0048084D01*
X0215221Y0048302D01*
X0215237Y0048244D01*
X0145237Y0048244D02*
X0144421Y0048026D01*
X0144405Y0048084D01*
X0145221Y0048302D01*
X0145237Y0048244D01*
X0075237Y0048244D02*
X0074421Y0048026D01*
X0074405Y0048084D01*
X0075221Y0048302D01*
X0075237Y0048244D01*
X0070651Y0065357D02*
X0069835Y0065139D01*
X0069819Y0065197D01*
X0070635Y0065415D01*
X0070651Y0065357D01*
X0045931Y0056803D02*
X0045115Y0056585D01*
X0045099Y0056643D01*
X0045915Y0056861D01*
X0045931Y0056803D01*
X0009401Y0100357D02*
X0008585Y0100139D01*
X0008569Y0100197D01*
X0009385Y0100415D01*
X0009401Y0100357D01*
X0014421Y0118026D02*
X0015237Y0118244D01*
X0014421Y0118026D02*
X0014405Y0118084D01*
X0015221Y0118302D01*
X0015237Y0118244D01*
X0010651Y0135357D02*
X0009835Y0135139D01*
X0009819Y0135197D01*
X0010635Y0135415D01*
X0010651Y0135357D01*
X0304279Y0178698D02*
X0305095Y0178916D01*
X0304279Y0178698D02*
X0304263Y0178756D01*
X0305079Y0178974D01*
X0305095Y0178916D01*
X0464835Y0240139D02*
X0465651Y0240357D01*
X0464835Y0240139D02*
X0464819Y0240197D01*
X0465635Y0240415D01*
X0465651Y0240357D01*
X0467181Y0231803D02*
X0466365Y0231585D01*
X0466349Y0231643D01*
X0467165Y0231861D01*
X0467181Y0231803D01*
X0469421Y0223026D02*
X0470237Y0223244D01*
X0469421Y0223026D02*
X0469405Y0223084D01*
X0470221Y0223302D01*
X0470237Y0223244D01*
X0496779Y0213698D02*
X0497595Y0213916D01*
X0496779Y0213698D02*
X0496763Y0213756D01*
X0497579Y0213974D01*
X0497595Y0213916D01*
X0501365Y0231585D02*
X0502181Y0231803D01*
X0501365Y0231585D02*
X0501349Y0231643D01*
X0502165Y0231861D01*
X0502181Y0231803D01*
X0497595Y0248916D02*
X0496779Y0248698D01*
X0496763Y0248756D01*
X0497579Y0248974D01*
X0497595Y0248916D01*
X0462595Y0248916D02*
X0461779Y0248698D01*
X0461763Y0248756D01*
X0462579Y0248974D01*
X0462595Y0248916D01*
X0501365Y0196585D02*
X0502181Y0196803D01*
X0501365Y0196585D02*
X0501349Y0196643D01*
X0502165Y0196861D01*
X0502181Y0196803D01*
D11*
X0264869Y0199721D02*
X0264869Y0199681D01*
X0264631Y0199681D01*
X0264631Y0199721D01*
X0264869Y0199721D01*
X0254869Y0199721D02*
X0254869Y0199681D01*
X0254631Y0199681D01*
X0254631Y0199721D01*
X0254869Y0199721D01*
X0244869Y0199721D02*
X0244869Y0199681D01*
X0244631Y0199681D01*
X0244631Y0199721D01*
X0244869Y0199721D01*
X0234869Y0204779D02*
X0234869Y0204819D01*
X0234869Y0204779D02*
X0234631Y0204779D01*
X0234631Y0204819D01*
X0234869Y0204819D01*
X0224869Y0204819D02*
X0224869Y0204779D01*
X0224631Y0204779D01*
X0224631Y0204819D01*
X0224869Y0204819D01*
X0214869Y0204819D02*
X0214869Y0204779D01*
X0214631Y0204779D01*
X0214631Y0204819D01*
X0214869Y0204819D01*
X0204869Y0204819D02*
X0204869Y0204779D01*
X0204631Y0204779D01*
X0204631Y0204819D01*
X0204869Y0204819D01*
X0194869Y0204819D02*
X0194869Y0204779D01*
X0194631Y0204779D01*
X0194631Y0204819D01*
X0194869Y0204819D01*
X0194869Y0217181D02*
X0194869Y0217221D01*
X0194869Y0217181D02*
X0194631Y0217181D01*
X0194631Y0217221D01*
X0194869Y0217221D01*
X0204869Y0217221D02*
X0204869Y0217181D01*
X0204631Y0217181D01*
X0204631Y0217221D01*
X0204869Y0217221D01*
X0214869Y0217221D02*
X0214869Y0217181D01*
X0214631Y0217181D01*
X0214631Y0217221D01*
X0214869Y0217221D01*
X0224869Y0217221D02*
X0224869Y0217181D01*
X0224631Y0217181D01*
X0224631Y0217221D01*
X0224869Y0217221D01*
X0234869Y0217221D02*
X0234869Y0217181D01*
X0234631Y0217181D01*
X0234631Y0217221D01*
X0234869Y0217221D01*
X0244869Y0187319D02*
X0244869Y0187279D01*
X0244631Y0187279D01*
X0244631Y0187319D01*
X0244869Y0187319D01*
X0254869Y0187319D02*
X0254869Y0187279D01*
X0254631Y0187279D01*
X0254631Y0187319D01*
X0254869Y0187319D01*
X0264869Y0187319D02*
X0264869Y0187279D01*
X0264631Y0187279D01*
X0264631Y0187319D01*
X0264869Y0187319D01*
D12*
X0280971Y0189529D02*
X0280971Y0189571D01*
X0280971Y0189529D02*
X0278529Y0189529D01*
X0278529Y0189571D01*
X0280971Y0189571D01*
X0290971Y0189571D02*
X0290971Y0189529D01*
X0288529Y0189529D01*
X0288529Y0189571D01*
X0290971Y0189571D01*
X0300971Y0189571D02*
X0300971Y0189529D01*
X0298529Y0189529D01*
X0298529Y0189571D01*
X0300971Y0189571D01*
X0310971Y0189571D02*
X0310971Y0189529D01*
X0308529Y0189529D01*
X0308529Y0189571D01*
X0310971Y0189571D01*
X0310971Y0197429D02*
X0310971Y0197471D01*
X0310971Y0197429D02*
X0308529Y0197429D01*
X0308529Y0197471D01*
X0310971Y0197471D01*
X0315971Y0207029D02*
X0315971Y0207071D01*
X0315971Y0207029D02*
X0313529Y0207029D01*
X0313529Y0207071D01*
X0315971Y0207071D01*
X0315971Y0214929D02*
X0315971Y0214971D01*
X0315971Y0214929D02*
X0313529Y0214929D01*
X0313529Y0214971D01*
X0315971Y0214971D01*
X0305971Y0214971D02*
X0305971Y0214929D01*
X0303529Y0214929D01*
X0303529Y0214971D01*
X0305971Y0214971D01*
X0295971Y0214971D02*
X0295971Y0214929D01*
X0293529Y0214929D01*
X0293529Y0214971D01*
X0295971Y0214971D01*
X0285971Y0214971D02*
X0285971Y0214929D01*
X0283529Y0214929D01*
X0283529Y0214971D01*
X0285971Y0214971D01*
X0285971Y0207071D02*
X0285971Y0207029D01*
X0283529Y0207029D01*
X0283529Y0207071D01*
X0285971Y0207071D01*
X0295971Y0207071D02*
X0295971Y0207029D01*
X0293529Y0207029D01*
X0293529Y0207071D01*
X0295971Y0207071D01*
X0305971Y0207071D02*
X0305971Y0207029D01*
X0303529Y0207029D01*
X0303529Y0207071D01*
X0305971Y0207071D01*
X0300971Y0197471D02*
X0300971Y0197429D01*
X0298529Y0197429D01*
X0298529Y0197471D01*
X0300971Y0197471D01*
X0290971Y0197471D02*
X0290971Y0197429D01*
X0288529Y0197429D01*
X0288529Y0197471D01*
X0290971Y0197471D01*
X0280971Y0197471D02*
X0280971Y0197429D01*
X0278529Y0197429D01*
X0278529Y0197471D01*
X0280971Y0197471D01*
X0268529Y0207029D02*
X0268529Y0207071D01*
X0270971Y0207071D01*
X0270971Y0207029D01*
X0268529Y0207029D01*
X0258529Y0207029D02*
X0258529Y0207071D01*
X0260971Y0207071D01*
X0260971Y0207029D01*
X0258529Y0207029D01*
X0248529Y0207029D02*
X0248529Y0207071D01*
X0250971Y0207071D01*
X0250971Y0207029D01*
X0248529Y0207029D01*
X0248529Y0214929D02*
X0248529Y0214971D01*
X0250971Y0214971D01*
X0250971Y0214929D01*
X0248529Y0214929D01*
X0258529Y0214929D02*
X0258529Y0214971D01*
X0260971Y0214971D01*
X0260971Y0214929D01*
X0258529Y0214929D01*
X0268529Y0214929D02*
X0268529Y0214971D01*
X0270971Y0214971D01*
X0270971Y0214929D01*
X0268529Y0214929D01*
X0349779Y0249529D02*
X0349779Y0249571D01*
X0352221Y0249571D01*
X0352221Y0249529D01*
X0349779Y0249529D01*
X0349779Y0257429D02*
X0349779Y0257471D01*
X0352221Y0257471D01*
X0352221Y0257429D01*
X0349779Y0257429D01*
X0359779Y0257429D02*
X0359779Y0257471D01*
X0362221Y0257471D01*
X0362221Y0257429D01*
X0359779Y0257429D01*
X0359779Y0249571D02*
X0359779Y0249529D01*
X0359779Y0249571D02*
X0362221Y0249571D01*
X0362221Y0249529D01*
X0359779Y0249529D01*
X0167279Y0249529D02*
X0167279Y0249571D01*
X0169721Y0249571D01*
X0169721Y0249529D01*
X0167279Y0249529D01*
X0167279Y0257429D02*
X0167279Y0257471D01*
X0169721Y0257471D01*
X0169721Y0257429D01*
X0167279Y0257429D01*
X0157279Y0257429D02*
X0157279Y0257471D01*
X0159721Y0257471D01*
X0159721Y0257429D01*
X0157279Y0257429D01*
X0157279Y0249571D02*
X0157279Y0249529D01*
X0157279Y0249571D02*
X0159721Y0249571D01*
X0159721Y0249529D01*
X0157279Y0249529D01*
D13*
X0199750Y0237250D03*
X0209750Y0237250D03*
X0219750Y0237250D03*
X0229750Y0237250D03*
X0239750Y0237250D03*
X0249750Y0237250D03*
X0259750Y0237250D03*
X0269750Y0237250D03*
X0279750Y0237250D03*
X0289750Y0237250D03*
X0299750Y0237250D03*
X0309750Y0237250D03*
X0319750Y0237250D03*
X0319750Y0227250D03*
X0309750Y0227250D03*
X0299750Y0227250D03*
X0289750Y0227250D03*
X0279750Y0227250D03*
X0269750Y0227250D03*
X0259750Y0227250D03*
X0249750Y0227250D03*
X0239750Y0227250D03*
X0229750Y0227250D03*
X0219750Y0227250D03*
X0209750Y0227250D03*
X0199750Y0227250D03*
M02*
