G75*
%MOIN*%
%OFA0B0*%
%FSLAX25Y25*%
%IPPOS*%
%LPD*%
%AMOC8*
5,1,8,0,0,1.08239X$1,22.5*
%
%ADD10C,0.05457*%
%ADD11C,0.03508*%
%ADD12C,0.03564*%
D10*
X0013172Y0048028D02*
X0013984Y0048245D01*
X0013172Y0048028D02*
X0013158Y0048083D01*
X0013970Y0048300D01*
X0013984Y0048245D01*
X0009398Y0065358D02*
X0008586Y0065141D01*
X0008572Y0065196D01*
X0009384Y0065413D01*
X0009398Y0065358D01*
X0013172Y0083028D02*
X0013984Y0083245D01*
X0013172Y0083028D02*
X0013158Y0083083D01*
X0013970Y0083300D01*
X0013984Y0083245D01*
X0040530Y0073700D02*
X0041342Y0073917D01*
X0040530Y0073700D02*
X0040516Y0073755D01*
X0041328Y0073972D01*
X0041342Y0073917D01*
X0056922Y0083028D02*
X0057734Y0083245D01*
X0056922Y0083028D02*
X0056908Y0083083D01*
X0057720Y0083300D01*
X0057734Y0083245D01*
X0045928Y0091804D02*
X0045116Y0091587D01*
X0045102Y0091642D01*
X0045914Y0091859D01*
X0045928Y0091804D01*
X0052336Y0100141D02*
X0053148Y0100358D01*
X0052336Y0100141D02*
X0052322Y0100196D01*
X0053134Y0100413D01*
X0053148Y0100358D01*
X0041342Y0108917D02*
X0040530Y0108700D01*
X0040516Y0108755D01*
X0041328Y0108972D01*
X0041342Y0108917D01*
X0049422Y0118028D02*
X0050234Y0118245D01*
X0049422Y0118028D02*
X0049408Y0118083D01*
X0050220Y0118300D01*
X0050234Y0118245D01*
X0047178Y0126804D02*
X0046366Y0126587D01*
X0046352Y0126642D01*
X0047164Y0126859D01*
X0047178Y0126804D01*
X0044836Y0135141D02*
X0045648Y0135358D01*
X0044836Y0135141D02*
X0044822Y0135196D01*
X0045634Y0135413D01*
X0045648Y0135358D01*
X0042592Y0143917D02*
X0041780Y0143700D01*
X0041766Y0143755D01*
X0042578Y0143972D01*
X0042592Y0143917D01*
X0032734Y0153245D02*
X0031922Y0153028D01*
X0031908Y0153083D01*
X0032720Y0153300D01*
X0032734Y0153245D01*
X0028148Y0170358D02*
X0027336Y0170141D01*
X0027322Y0170196D01*
X0028134Y0170413D01*
X0028148Y0170358D01*
X0015234Y0188245D02*
X0014422Y0188028D01*
X0014408Y0188083D01*
X0015220Y0188300D01*
X0015234Y0188245D01*
X0010648Y0205358D02*
X0009836Y0205141D01*
X0009822Y0205196D01*
X0010634Y0205413D01*
X0010648Y0205358D01*
X0014422Y0223028D02*
X0015234Y0223245D01*
X0014422Y0223028D02*
X0014408Y0223083D01*
X0015220Y0223300D01*
X0015234Y0223245D01*
X0010648Y0240358D02*
X0009836Y0240141D01*
X0009822Y0240196D01*
X0010634Y0240413D01*
X0010648Y0240358D01*
X0041780Y0248700D02*
X0042592Y0248917D01*
X0041780Y0248700D02*
X0041766Y0248755D01*
X0042578Y0248972D01*
X0042592Y0248917D01*
X0062336Y0240141D02*
X0063148Y0240358D01*
X0062336Y0240141D02*
X0062322Y0240196D01*
X0063134Y0240413D01*
X0063148Y0240358D01*
X0047178Y0231804D02*
X0046366Y0231587D01*
X0046352Y0231642D01*
X0047164Y0231859D01*
X0047178Y0231804D01*
X0066922Y0223028D02*
X0067734Y0223245D01*
X0066922Y0223028D02*
X0066908Y0223083D01*
X0067720Y0223300D01*
X0067734Y0223245D01*
X0042592Y0213917D02*
X0041780Y0213700D01*
X0041766Y0213755D01*
X0042578Y0213972D01*
X0042592Y0213917D01*
X0062336Y0205141D02*
X0063148Y0205358D01*
X0062336Y0205141D02*
X0062322Y0205196D01*
X0063134Y0205413D01*
X0063148Y0205358D01*
X0047178Y0196804D02*
X0046366Y0196587D01*
X0046352Y0196642D01*
X0047164Y0196859D01*
X0047178Y0196804D01*
X0066922Y0188028D02*
X0067734Y0188245D01*
X0066922Y0188028D02*
X0066908Y0188083D01*
X0067720Y0188300D01*
X0067734Y0188245D01*
X0060092Y0178917D02*
X0059280Y0178700D01*
X0059266Y0178755D01*
X0060078Y0178972D01*
X0060092Y0178917D01*
X0062336Y0170141D02*
X0063148Y0170358D01*
X0062336Y0170141D02*
X0062322Y0170196D01*
X0063134Y0170413D01*
X0063148Y0170358D01*
X0064678Y0161804D02*
X0063866Y0161587D01*
X0063852Y0161642D01*
X0064664Y0161859D01*
X0064678Y0161804D01*
X0066922Y0153028D02*
X0067734Y0153245D01*
X0066922Y0153028D02*
X0066908Y0153083D01*
X0067720Y0153300D01*
X0067734Y0153245D01*
X0076780Y0143700D02*
X0077592Y0143917D01*
X0076780Y0143700D02*
X0076766Y0143755D01*
X0077578Y0143972D01*
X0077592Y0143917D01*
X0079836Y0135141D02*
X0080648Y0135358D01*
X0079836Y0135141D02*
X0079822Y0135196D01*
X0080634Y0135413D01*
X0080648Y0135358D01*
X0082178Y0126804D02*
X0081366Y0126587D01*
X0081352Y0126642D01*
X0082164Y0126859D01*
X0082178Y0126804D01*
X0084422Y0118028D02*
X0085234Y0118245D01*
X0084422Y0118028D02*
X0084408Y0118083D01*
X0085220Y0118300D01*
X0085234Y0118245D01*
X0085092Y0108917D02*
X0084280Y0108700D01*
X0084266Y0108755D01*
X0085078Y0108972D01*
X0085092Y0108917D01*
X0087336Y0100141D02*
X0088148Y0100358D01*
X0087336Y0100141D02*
X0087322Y0100196D01*
X0088134Y0100413D01*
X0088148Y0100358D01*
X0089678Y0091804D02*
X0088866Y0091587D01*
X0088852Y0091642D01*
X0089664Y0091859D01*
X0089678Y0091804D01*
X0091922Y0083028D02*
X0092734Y0083245D01*
X0091922Y0083028D02*
X0091908Y0083083D01*
X0092720Y0083300D01*
X0092734Y0083245D01*
X0101780Y0073700D02*
X0102592Y0073917D01*
X0101780Y0073700D02*
X0101766Y0073755D01*
X0102578Y0073972D01*
X0102592Y0073917D01*
X0104836Y0065141D02*
X0105648Y0065358D01*
X0104836Y0065141D02*
X0104822Y0065196D01*
X0105634Y0065413D01*
X0105648Y0065358D01*
X0107178Y0056804D02*
X0106366Y0056587D01*
X0106352Y0056642D01*
X0107164Y0056859D01*
X0107178Y0056804D01*
X0109422Y0048028D02*
X0110234Y0048245D01*
X0109422Y0048028D02*
X0109408Y0048083D01*
X0110220Y0048300D01*
X0110234Y0048245D01*
X0141366Y0056587D02*
X0142178Y0056804D01*
X0141366Y0056587D02*
X0141352Y0056642D01*
X0142164Y0056859D01*
X0142178Y0056804D01*
X0139836Y0065141D02*
X0140648Y0065358D01*
X0139836Y0065141D02*
X0139822Y0065196D01*
X0140634Y0065413D01*
X0140648Y0065358D01*
X0137592Y0073917D02*
X0136780Y0073700D01*
X0136766Y0073755D01*
X0137578Y0073972D01*
X0137592Y0073917D01*
X0127734Y0083245D02*
X0126922Y0083028D01*
X0126908Y0083083D01*
X0127720Y0083300D01*
X0127734Y0083245D01*
X0124678Y0091804D02*
X0123866Y0091587D01*
X0123852Y0091642D01*
X0124664Y0091859D01*
X0124678Y0091804D01*
X0122336Y0100141D02*
X0123148Y0100358D01*
X0122336Y0100141D02*
X0122322Y0100196D01*
X0123134Y0100413D01*
X0123148Y0100358D01*
X0120092Y0108917D02*
X0119280Y0108700D01*
X0119266Y0108755D01*
X0120078Y0108972D01*
X0120092Y0108917D01*
X0119422Y0118028D02*
X0120234Y0118245D01*
X0119422Y0118028D02*
X0119408Y0118083D01*
X0120220Y0118300D01*
X0120234Y0118245D01*
X0117178Y0126804D02*
X0116366Y0126587D01*
X0116352Y0126642D01*
X0117164Y0126859D01*
X0117178Y0126804D01*
X0114836Y0135141D02*
X0115648Y0135358D01*
X0114836Y0135141D02*
X0114822Y0135196D01*
X0115634Y0135413D01*
X0115648Y0135358D01*
X0112592Y0143917D02*
X0111780Y0143700D01*
X0111766Y0143755D01*
X0112578Y0143972D01*
X0112592Y0143917D01*
X0102734Y0153245D02*
X0101922Y0153028D01*
X0101908Y0153083D01*
X0102720Y0153300D01*
X0102734Y0153245D01*
X0099678Y0161804D02*
X0098866Y0161587D01*
X0098852Y0161642D01*
X0099664Y0161859D01*
X0099678Y0161804D01*
X0097336Y0170141D02*
X0098148Y0170358D01*
X0097336Y0170141D02*
X0097322Y0170196D01*
X0098134Y0170413D01*
X0098148Y0170358D01*
X0095092Y0178917D02*
X0094280Y0178700D01*
X0094266Y0178755D01*
X0095078Y0178972D01*
X0095092Y0178917D01*
X0101922Y0188028D02*
X0102734Y0188245D01*
X0101922Y0188028D02*
X0101908Y0188083D01*
X0102720Y0188300D01*
X0102734Y0188245D01*
X0099678Y0196804D02*
X0098866Y0196587D01*
X0098852Y0196642D01*
X0099664Y0196859D01*
X0099678Y0196804D01*
X0097336Y0205141D02*
X0098148Y0205358D01*
X0097336Y0205141D02*
X0097322Y0205196D01*
X0098134Y0205413D01*
X0098148Y0205358D01*
X0095092Y0213917D02*
X0094280Y0213700D01*
X0094266Y0213755D01*
X0095078Y0213972D01*
X0095092Y0213917D01*
X0101922Y0223028D02*
X0102734Y0223245D01*
X0101922Y0223028D02*
X0101908Y0223083D01*
X0102720Y0223300D01*
X0102734Y0223245D01*
X0099678Y0231804D02*
X0098866Y0231587D01*
X0098852Y0231642D01*
X0099664Y0231859D01*
X0099678Y0231804D01*
X0097336Y0240141D02*
X0098148Y0240358D01*
X0097336Y0240141D02*
X0097322Y0240196D01*
X0098134Y0240413D01*
X0098148Y0240358D01*
X0095092Y0248917D02*
X0094280Y0248700D01*
X0094266Y0248755D01*
X0095078Y0248972D01*
X0095092Y0248917D01*
X0129280Y0248700D02*
X0130092Y0248917D01*
X0129280Y0248700D02*
X0129266Y0248755D01*
X0130078Y0248972D01*
X0130092Y0248917D01*
X0134678Y0231804D02*
X0133866Y0231587D01*
X0133852Y0231642D01*
X0134664Y0231859D01*
X0134678Y0231804D01*
X0130092Y0213917D02*
X0129280Y0213700D01*
X0129266Y0213755D01*
X0130078Y0213972D01*
X0130092Y0213917D01*
X0134678Y0196804D02*
X0133866Y0196587D01*
X0133852Y0196642D01*
X0134664Y0196859D01*
X0134678Y0196804D01*
X0130092Y0178917D02*
X0129280Y0178700D01*
X0129266Y0178755D01*
X0130078Y0178972D01*
X0130092Y0178917D01*
X0132336Y0170141D02*
X0133148Y0170358D01*
X0132336Y0170141D02*
X0132322Y0170196D01*
X0133134Y0170413D01*
X0133148Y0170358D01*
X0134678Y0161804D02*
X0133866Y0161587D01*
X0133852Y0161642D01*
X0134664Y0161859D01*
X0134678Y0161804D01*
X0136922Y0153028D02*
X0137734Y0153245D01*
X0136922Y0153028D02*
X0136908Y0153083D01*
X0137720Y0153300D01*
X0137734Y0153245D01*
X0146780Y0143700D02*
X0147592Y0143917D01*
X0146780Y0143700D02*
X0146766Y0143755D01*
X0147578Y0143972D01*
X0147592Y0143917D01*
X0149836Y0135141D02*
X0150648Y0135358D01*
X0149836Y0135141D02*
X0149822Y0135196D01*
X0150634Y0135413D01*
X0150648Y0135358D01*
X0152178Y0126804D02*
X0151366Y0126587D01*
X0151352Y0126642D01*
X0152164Y0126859D01*
X0152178Y0126804D01*
X0154422Y0118028D02*
X0155234Y0118245D01*
X0154422Y0118028D02*
X0154408Y0118083D01*
X0155220Y0118300D01*
X0155234Y0118245D01*
X0155092Y0108917D02*
X0154280Y0108700D01*
X0154266Y0108755D01*
X0155078Y0108972D01*
X0155092Y0108917D01*
X0157336Y0100141D02*
X0158148Y0100358D01*
X0157336Y0100141D02*
X0157322Y0100196D01*
X0158134Y0100413D01*
X0158148Y0100358D01*
X0159678Y0091804D02*
X0158866Y0091587D01*
X0158852Y0091642D01*
X0159664Y0091859D01*
X0159678Y0091804D01*
X0161922Y0083028D02*
X0162734Y0083245D01*
X0161922Y0083028D02*
X0161908Y0083083D01*
X0162720Y0083300D01*
X0162734Y0083245D01*
X0171780Y0073700D02*
X0172592Y0073917D01*
X0171780Y0073700D02*
X0171766Y0073755D01*
X0172578Y0073972D01*
X0172592Y0073917D01*
X0174836Y0065141D02*
X0175648Y0065358D01*
X0174836Y0065141D02*
X0174822Y0065196D01*
X0175634Y0065413D01*
X0175648Y0065358D01*
X0177178Y0056804D02*
X0176366Y0056587D01*
X0176352Y0056642D01*
X0177164Y0056859D01*
X0177178Y0056804D01*
X0179422Y0048028D02*
X0180234Y0048245D01*
X0179422Y0048028D02*
X0179408Y0048083D01*
X0180220Y0048300D01*
X0180234Y0048245D01*
X0211366Y0056587D02*
X0212178Y0056804D01*
X0211366Y0056587D02*
X0211352Y0056642D01*
X0212164Y0056859D01*
X0212178Y0056804D01*
X0209836Y0065141D02*
X0210648Y0065358D01*
X0209836Y0065141D02*
X0209822Y0065196D01*
X0210634Y0065413D01*
X0210648Y0065358D01*
X0207592Y0073917D02*
X0206780Y0073700D01*
X0206766Y0073755D01*
X0207578Y0073972D01*
X0207592Y0073917D01*
X0197734Y0083245D02*
X0196922Y0083028D01*
X0196908Y0083083D01*
X0197720Y0083300D01*
X0197734Y0083245D01*
X0194678Y0091804D02*
X0193866Y0091587D01*
X0193852Y0091642D01*
X0194664Y0091859D01*
X0194678Y0091804D01*
X0192336Y0100141D02*
X0193148Y0100358D01*
X0192336Y0100141D02*
X0192322Y0100196D01*
X0193134Y0100413D01*
X0193148Y0100358D01*
X0190092Y0108917D02*
X0189280Y0108700D01*
X0189266Y0108755D01*
X0190078Y0108972D01*
X0190092Y0108917D01*
X0189422Y0118028D02*
X0190234Y0118245D01*
X0189422Y0118028D02*
X0189408Y0118083D01*
X0190220Y0118300D01*
X0190234Y0118245D01*
X0187178Y0126804D02*
X0186366Y0126587D01*
X0186352Y0126642D01*
X0187164Y0126859D01*
X0187178Y0126804D01*
X0184836Y0135141D02*
X0185648Y0135358D01*
X0184836Y0135141D02*
X0184822Y0135196D01*
X0185634Y0135413D01*
X0185648Y0135358D01*
X0182592Y0143917D02*
X0181780Y0143700D01*
X0181766Y0143755D01*
X0182578Y0143972D01*
X0182592Y0143917D01*
X0172734Y0153245D02*
X0171922Y0153028D01*
X0171908Y0153083D01*
X0172720Y0153300D01*
X0172734Y0153245D01*
X0169678Y0161804D02*
X0168866Y0161587D01*
X0168852Y0161642D01*
X0169664Y0161859D01*
X0169678Y0161804D01*
X0167336Y0170141D02*
X0168148Y0170358D01*
X0167336Y0170141D02*
X0167322Y0170196D01*
X0168134Y0170413D01*
X0168148Y0170358D01*
X0165092Y0178917D02*
X0164280Y0178700D01*
X0164266Y0178755D01*
X0165078Y0178972D01*
X0165092Y0178917D01*
X0199280Y0178700D02*
X0200092Y0178917D01*
X0199280Y0178700D02*
X0199266Y0178755D01*
X0200078Y0178972D01*
X0200092Y0178917D01*
X0202336Y0170141D02*
X0203148Y0170358D01*
X0202336Y0170141D02*
X0202322Y0170196D01*
X0203134Y0170413D01*
X0203148Y0170358D01*
X0204678Y0161804D02*
X0203866Y0161587D01*
X0203852Y0161642D01*
X0204664Y0161859D01*
X0204678Y0161804D01*
X0206922Y0153028D02*
X0207734Y0153245D01*
X0206922Y0153028D02*
X0206908Y0153083D01*
X0207720Y0153300D01*
X0207734Y0153245D01*
X0216780Y0143700D02*
X0217592Y0143917D01*
X0216780Y0143700D02*
X0216766Y0143755D01*
X0217578Y0143972D01*
X0217592Y0143917D01*
X0219836Y0135141D02*
X0220648Y0135358D01*
X0219836Y0135141D02*
X0219822Y0135196D01*
X0220634Y0135413D01*
X0220648Y0135358D01*
X0222178Y0126804D02*
X0221366Y0126587D01*
X0221352Y0126642D01*
X0222164Y0126859D01*
X0222178Y0126804D01*
X0224422Y0118028D02*
X0225234Y0118245D01*
X0224422Y0118028D02*
X0224408Y0118083D01*
X0225220Y0118300D01*
X0225234Y0118245D01*
X0225092Y0108917D02*
X0224280Y0108700D01*
X0224266Y0108755D01*
X0225078Y0108972D01*
X0225092Y0108917D01*
X0227336Y0100141D02*
X0228148Y0100358D01*
X0227336Y0100141D02*
X0227322Y0100196D01*
X0228134Y0100413D01*
X0228148Y0100358D01*
X0229678Y0091804D02*
X0228866Y0091587D01*
X0228852Y0091642D01*
X0229664Y0091859D01*
X0229678Y0091804D01*
X0231922Y0083028D02*
X0232734Y0083245D01*
X0231922Y0083028D02*
X0231908Y0083083D01*
X0232720Y0083300D01*
X0232734Y0083245D01*
X0241780Y0073700D02*
X0242592Y0073917D01*
X0241780Y0073700D02*
X0241766Y0073755D01*
X0242578Y0073972D01*
X0242592Y0073917D01*
X0244836Y0065141D02*
X0245648Y0065358D01*
X0244836Y0065141D02*
X0244822Y0065196D01*
X0245634Y0065413D01*
X0245648Y0065358D01*
X0247178Y0056804D02*
X0246366Y0056587D01*
X0246352Y0056642D01*
X0247164Y0056859D01*
X0247178Y0056804D01*
X0249422Y0048028D02*
X0250234Y0048245D01*
X0249422Y0048028D02*
X0249408Y0048083D01*
X0250220Y0048300D01*
X0250234Y0048245D01*
X0273030Y0038700D02*
X0273842Y0038917D01*
X0273030Y0038700D02*
X0273016Y0038755D01*
X0273828Y0038972D01*
X0273842Y0038917D01*
X0284422Y0048028D02*
X0285234Y0048245D01*
X0284422Y0048028D02*
X0284408Y0048083D01*
X0285220Y0048300D01*
X0285234Y0048245D01*
X0282178Y0056804D02*
X0281366Y0056587D01*
X0281352Y0056642D01*
X0282164Y0056859D01*
X0282178Y0056804D01*
X0279836Y0065141D02*
X0280648Y0065358D01*
X0279836Y0065141D02*
X0279822Y0065196D01*
X0280634Y0065413D01*
X0280648Y0065358D01*
X0277592Y0073917D02*
X0276780Y0073700D01*
X0276766Y0073755D01*
X0277578Y0073972D01*
X0277592Y0073917D01*
X0267734Y0083245D02*
X0266922Y0083028D01*
X0266908Y0083083D01*
X0267720Y0083300D01*
X0267734Y0083245D01*
X0264678Y0091804D02*
X0263866Y0091587D01*
X0263852Y0091642D01*
X0264664Y0091859D01*
X0264678Y0091804D01*
X0262336Y0100141D02*
X0263148Y0100358D01*
X0262336Y0100141D02*
X0262322Y0100196D01*
X0263134Y0100413D01*
X0263148Y0100358D01*
X0260092Y0108917D02*
X0259280Y0108700D01*
X0259266Y0108755D01*
X0260078Y0108972D01*
X0260092Y0108917D01*
X0259422Y0118028D02*
X0260234Y0118245D01*
X0259422Y0118028D02*
X0259408Y0118083D01*
X0260220Y0118300D01*
X0260234Y0118245D01*
X0257178Y0126804D02*
X0256366Y0126587D01*
X0256352Y0126642D01*
X0257164Y0126859D01*
X0257178Y0126804D01*
X0254836Y0135141D02*
X0255648Y0135358D01*
X0254836Y0135141D02*
X0254822Y0135196D01*
X0255634Y0135413D01*
X0255648Y0135358D01*
X0252592Y0143917D02*
X0251780Y0143700D01*
X0251766Y0143755D01*
X0252578Y0143972D01*
X0252592Y0143917D01*
X0242734Y0153245D02*
X0241922Y0153028D01*
X0241908Y0153083D01*
X0242720Y0153300D01*
X0242734Y0153245D01*
X0239678Y0161804D02*
X0238866Y0161587D01*
X0238852Y0161642D01*
X0239664Y0161859D01*
X0239678Y0161804D01*
X0237336Y0170141D02*
X0238148Y0170358D01*
X0237336Y0170141D02*
X0237322Y0170196D01*
X0238134Y0170413D01*
X0238148Y0170358D01*
X0235092Y0178917D02*
X0234280Y0178700D01*
X0234266Y0178755D01*
X0235078Y0178972D01*
X0235092Y0178917D01*
X0269280Y0178700D02*
X0270092Y0178917D01*
X0269280Y0178700D02*
X0269266Y0178755D01*
X0270078Y0178972D01*
X0270092Y0178917D01*
X0272336Y0170141D02*
X0273148Y0170358D01*
X0272336Y0170141D02*
X0272322Y0170196D01*
X0273134Y0170413D01*
X0273148Y0170358D01*
X0274678Y0161804D02*
X0273866Y0161587D01*
X0273852Y0161642D01*
X0274664Y0161859D01*
X0274678Y0161804D01*
X0276922Y0153028D02*
X0277734Y0153245D01*
X0276922Y0153028D02*
X0276908Y0153083D01*
X0277720Y0153300D01*
X0277734Y0153245D01*
X0286780Y0143700D02*
X0287592Y0143917D01*
X0286780Y0143700D02*
X0286766Y0143755D01*
X0287578Y0143972D01*
X0287592Y0143917D01*
X0289836Y0135141D02*
X0290648Y0135358D01*
X0289836Y0135141D02*
X0289822Y0135196D01*
X0290634Y0135413D01*
X0290648Y0135358D01*
X0292178Y0126804D02*
X0291366Y0126587D01*
X0291352Y0126642D01*
X0292164Y0126859D01*
X0292178Y0126804D01*
X0294422Y0118028D02*
X0295234Y0118245D01*
X0294422Y0118028D02*
X0294408Y0118083D01*
X0295220Y0118300D01*
X0295234Y0118245D01*
X0295092Y0108917D02*
X0294280Y0108700D01*
X0294266Y0108755D01*
X0295078Y0108972D01*
X0295092Y0108917D01*
X0297336Y0100141D02*
X0298148Y0100358D01*
X0297336Y0100141D02*
X0297322Y0100196D01*
X0298134Y0100413D01*
X0298148Y0100358D01*
X0299678Y0091804D02*
X0298866Y0091587D01*
X0298852Y0091642D01*
X0299664Y0091859D01*
X0299678Y0091804D01*
X0301922Y0083028D02*
X0302734Y0083245D01*
X0301922Y0083028D02*
X0301908Y0083083D01*
X0302720Y0083300D01*
X0302734Y0083245D01*
X0311780Y0073700D02*
X0312592Y0073917D01*
X0311780Y0073700D02*
X0311766Y0073755D01*
X0312578Y0073972D01*
X0312592Y0073917D01*
X0314836Y0065141D02*
X0315648Y0065358D01*
X0314836Y0065141D02*
X0314822Y0065196D01*
X0315634Y0065413D01*
X0315648Y0065358D01*
X0317178Y0056804D02*
X0316366Y0056587D01*
X0316352Y0056642D01*
X0317164Y0056859D01*
X0317178Y0056804D01*
X0319422Y0048028D02*
X0320234Y0048245D01*
X0319422Y0048028D02*
X0319408Y0048083D01*
X0320220Y0048300D01*
X0320234Y0048245D01*
X0349836Y0065141D02*
X0350648Y0065358D01*
X0349836Y0065141D02*
X0349822Y0065196D01*
X0350634Y0065413D01*
X0350648Y0065358D01*
X0352178Y0056804D02*
X0351366Y0056587D01*
X0351352Y0056642D01*
X0352164Y0056859D01*
X0352178Y0056804D01*
X0354422Y0048028D02*
X0355234Y0048245D01*
X0354422Y0048028D02*
X0354408Y0048083D01*
X0355220Y0048300D01*
X0355234Y0048245D01*
X0386366Y0056587D02*
X0387178Y0056804D01*
X0386366Y0056587D02*
X0386352Y0056642D01*
X0387164Y0056859D01*
X0387178Y0056804D01*
X0384836Y0065141D02*
X0385648Y0065358D01*
X0384836Y0065141D02*
X0384822Y0065196D01*
X0385634Y0065413D01*
X0385648Y0065358D01*
X0382592Y0073917D02*
X0381780Y0073700D01*
X0381766Y0073755D01*
X0382578Y0073972D01*
X0382592Y0073917D01*
X0372734Y0083245D02*
X0371922Y0083028D01*
X0371908Y0083083D01*
X0372720Y0083300D01*
X0372734Y0083245D01*
X0369678Y0091804D02*
X0368866Y0091587D01*
X0368852Y0091642D01*
X0369664Y0091859D01*
X0369678Y0091804D01*
X0367336Y0100141D02*
X0368148Y0100358D01*
X0367336Y0100141D02*
X0367322Y0100196D01*
X0368134Y0100413D01*
X0368148Y0100358D01*
X0365092Y0108917D02*
X0364280Y0108700D01*
X0364266Y0108755D01*
X0365078Y0108972D01*
X0365092Y0108917D01*
X0364422Y0118028D02*
X0365234Y0118245D01*
X0364422Y0118028D02*
X0364408Y0118083D01*
X0365220Y0118300D01*
X0365234Y0118245D01*
X0362178Y0126804D02*
X0361366Y0126587D01*
X0361352Y0126642D01*
X0362164Y0126859D01*
X0362178Y0126804D01*
X0359836Y0135141D02*
X0360648Y0135358D01*
X0359836Y0135141D02*
X0359822Y0135196D01*
X0360634Y0135413D01*
X0360648Y0135358D01*
X0357592Y0143917D02*
X0356780Y0143700D01*
X0356766Y0143755D01*
X0357578Y0143972D01*
X0357592Y0143917D01*
X0347734Y0153245D02*
X0346922Y0153028D01*
X0346908Y0153083D01*
X0347720Y0153300D01*
X0347734Y0153245D01*
X0344678Y0161804D02*
X0343866Y0161587D01*
X0343852Y0161642D01*
X0344664Y0161859D01*
X0344678Y0161804D01*
X0342336Y0170141D02*
X0343148Y0170358D01*
X0342336Y0170141D02*
X0342322Y0170196D01*
X0343134Y0170413D01*
X0343148Y0170358D01*
X0340092Y0178917D02*
X0339280Y0178700D01*
X0339266Y0178755D01*
X0340078Y0178972D01*
X0340092Y0178917D01*
X0308148Y0170358D02*
X0307336Y0170141D01*
X0307322Y0170196D01*
X0308134Y0170413D01*
X0308148Y0170358D01*
X0309678Y0161804D02*
X0308866Y0161587D01*
X0308852Y0161642D01*
X0309664Y0161859D01*
X0309678Y0161804D01*
X0311922Y0153028D02*
X0312734Y0153245D01*
X0311922Y0153028D02*
X0311908Y0153083D01*
X0312720Y0153300D01*
X0312734Y0153245D01*
X0321780Y0143700D02*
X0322592Y0143917D01*
X0321780Y0143700D02*
X0321766Y0143755D01*
X0322578Y0143972D01*
X0322592Y0143917D01*
X0324836Y0135141D02*
X0325648Y0135358D01*
X0324836Y0135141D02*
X0324822Y0135196D01*
X0325634Y0135413D01*
X0325648Y0135358D01*
X0327178Y0126804D02*
X0326366Y0126587D01*
X0326352Y0126642D01*
X0327164Y0126859D01*
X0327178Y0126804D01*
X0329422Y0118028D02*
X0330234Y0118245D01*
X0329422Y0118028D02*
X0329408Y0118083D01*
X0330220Y0118300D01*
X0330234Y0118245D01*
X0330092Y0108917D02*
X0329280Y0108700D01*
X0329266Y0108755D01*
X0330078Y0108972D01*
X0330092Y0108917D01*
X0332336Y0100141D02*
X0333148Y0100358D01*
X0332336Y0100141D02*
X0332322Y0100196D01*
X0333134Y0100413D01*
X0333148Y0100358D01*
X0334678Y0091804D02*
X0333866Y0091587D01*
X0333852Y0091642D01*
X0334664Y0091859D01*
X0334678Y0091804D01*
X0336922Y0083028D02*
X0337734Y0083245D01*
X0336922Y0083028D02*
X0336908Y0083083D01*
X0337720Y0083300D01*
X0337734Y0083245D01*
X0346780Y0073700D02*
X0347592Y0073917D01*
X0346780Y0073700D02*
X0346766Y0073755D01*
X0347578Y0073972D01*
X0347592Y0073917D01*
X0389422Y0048028D02*
X0390234Y0048245D01*
X0389422Y0048028D02*
X0389408Y0048083D01*
X0390220Y0048300D01*
X0390234Y0048245D01*
X0421366Y0056587D02*
X0422178Y0056804D01*
X0421366Y0056587D02*
X0421352Y0056642D01*
X0422164Y0056859D01*
X0422178Y0056804D01*
X0419836Y0065141D02*
X0420648Y0065358D01*
X0419836Y0065141D02*
X0419822Y0065196D01*
X0420634Y0065413D01*
X0420648Y0065358D01*
X0417592Y0073917D02*
X0416780Y0073700D01*
X0416766Y0073755D01*
X0417578Y0073972D01*
X0417592Y0073917D01*
X0407734Y0083245D02*
X0406922Y0083028D01*
X0406908Y0083083D01*
X0407720Y0083300D01*
X0407734Y0083245D01*
X0404678Y0091804D02*
X0403866Y0091587D01*
X0403852Y0091642D01*
X0404664Y0091859D01*
X0404678Y0091804D01*
X0402336Y0100141D02*
X0403148Y0100358D01*
X0402336Y0100141D02*
X0402322Y0100196D01*
X0403134Y0100413D01*
X0403148Y0100358D01*
X0400092Y0108917D02*
X0399280Y0108700D01*
X0399266Y0108755D01*
X0400078Y0108972D01*
X0400092Y0108917D01*
X0399422Y0118028D02*
X0400234Y0118245D01*
X0399422Y0118028D02*
X0399408Y0118083D01*
X0400220Y0118300D01*
X0400234Y0118245D01*
X0397178Y0126804D02*
X0396366Y0126587D01*
X0396352Y0126642D01*
X0397164Y0126859D01*
X0397178Y0126804D01*
X0394836Y0135141D02*
X0395648Y0135358D01*
X0394836Y0135141D02*
X0394822Y0135196D01*
X0395634Y0135413D01*
X0395648Y0135358D01*
X0392592Y0143917D02*
X0391780Y0143700D01*
X0391766Y0143755D01*
X0392578Y0143972D01*
X0392592Y0143917D01*
X0382734Y0153245D02*
X0381922Y0153028D01*
X0381908Y0153083D01*
X0382720Y0153300D01*
X0382734Y0153245D01*
X0379678Y0161804D02*
X0378866Y0161587D01*
X0378852Y0161642D01*
X0379664Y0161859D01*
X0379678Y0161804D01*
X0377336Y0170141D02*
X0378148Y0170358D01*
X0377336Y0170141D02*
X0377322Y0170196D01*
X0378134Y0170413D01*
X0378148Y0170358D01*
X0375092Y0178917D02*
X0374280Y0178700D01*
X0374266Y0178755D01*
X0375078Y0178972D01*
X0375092Y0178917D01*
X0399422Y0188028D02*
X0400234Y0188245D01*
X0399422Y0188028D02*
X0399408Y0188083D01*
X0400220Y0188300D01*
X0400234Y0188245D01*
X0409280Y0178700D02*
X0410092Y0178917D01*
X0409280Y0178700D02*
X0409266Y0178755D01*
X0410078Y0178972D01*
X0410092Y0178917D01*
X0412336Y0170141D02*
X0413148Y0170358D01*
X0412336Y0170141D02*
X0412322Y0170196D01*
X0413134Y0170413D01*
X0413148Y0170358D01*
X0414678Y0161804D02*
X0413866Y0161587D01*
X0413852Y0161642D01*
X0414664Y0161859D01*
X0414678Y0161804D01*
X0416922Y0153028D02*
X0417734Y0153245D01*
X0416922Y0153028D02*
X0416908Y0153083D01*
X0417720Y0153300D01*
X0417734Y0153245D01*
X0426780Y0143700D02*
X0427592Y0143917D01*
X0426780Y0143700D02*
X0426766Y0143755D01*
X0427578Y0143972D01*
X0427592Y0143917D01*
X0429836Y0135141D02*
X0430648Y0135358D01*
X0429836Y0135141D02*
X0429822Y0135196D01*
X0430634Y0135413D01*
X0430648Y0135358D01*
X0432178Y0126804D02*
X0431366Y0126587D01*
X0431352Y0126642D01*
X0432164Y0126859D01*
X0432178Y0126804D01*
X0434422Y0118028D02*
X0435234Y0118245D01*
X0434422Y0118028D02*
X0434408Y0118083D01*
X0435220Y0118300D01*
X0435234Y0118245D01*
X0435092Y0108917D02*
X0434280Y0108700D01*
X0434266Y0108755D01*
X0435078Y0108972D01*
X0435092Y0108917D01*
X0437336Y0100141D02*
X0438148Y0100358D01*
X0437336Y0100141D02*
X0437322Y0100196D01*
X0438134Y0100413D01*
X0438148Y0100358D01*
X0439678Y0091804D02*
X0438866Y0091587D01*
X0438852Y0091642D01*
X0439664Y0091859D01*
X0439678Y0091804D01*
X0441922Y0083028D02*
X0442734Y0083245D01*
X0441922Y0083028D02*
X0441908Y0083083D01*
X0442720Y0083300D01*
X0442734Y0083245D01*
X0451780Y0073700D02*
X0452592Y0073917D01*
X0451780Y0073700D02*
X0451766Y0073755D01*
X0452578Y0073972D01*
X0452592Y0073917D01*
X0454836Y0065141D02*
X0455648Y0065358D01*
X0454836Y0065141D02*
X0454822Y0065196D01*
X0455634Y0065413D01*
X0455648Y0065358D01*
X0457178Y0056804D02*
X0456366Y0056587D01*
X0456352Y0056642D01*
X0457164Y0056859D01*
X0457178Y0056804D01*
X0459422Y0048028D02*
X0460234Y0048245D01*
X0459422Y0048028D02*
X0459408Y0048083D01*
X0460220Y0048300D01*
X0460234Y0048245D01*
X0491366Y0056587D02*
X0492178Y0056804D01*
X0491366Y0056587D02*
X0491352Y0056642D01*
X0492164Y0056859D01*
X0492178Y0056804D01*
X0487592Y0073917D02*
X0486780Y0073700D01*
X0486766Y0073755D01*
X0487578Y0073972D01*
X0487592Y0073917D01*
X0477734Y0083245D02*
X0476922Y0083028D01*
X0476908Y0083083D01*
X0477720Y0083300D01*
X0477734Y0083245D01*
X0474678Y0091804D02*
X0473866Y0091587D01*
X0473852Y0091642D01*
X0474664Y0091859D01*
X0474678Y0091804D01*
X0472336Y0100141D02*
X0473148Y0100358D01*
X0472336Y0100141D02*
X0472322Y0100196D01*
X0473134Y0100413D01*
X0473148Y0100358D01*
X0470092Y0108917D02*
X0469280Y0108700D01*
X0469266Y0108755D01*
X0470078Y0108972D01*
X0470092Y0108917D01*
X0469422Y0118028D02*
X0470234Y0118245D01*
X0469422Y0118028D02*
X0469408Y0118083D01*
X0470220Y0118300D01*
X0470234Y0118245D01*
X0467178Y0126804D02*
X0466366Y0126587D01*
X0466352Y0126642D01*
X0467164Y0126859D01*
X0467178Y0126804D01*
X0464836Y0135141D02*
X0465648Y0135358D01*
X0464836Y0135141D02*
X0464822Y0135196D01*
X0465634Y0135413D01*
X0465648Y0135358D01*
X0462592Y0143917D02*
X0461780Y0143700D01*
X0461766Y0143755D01*
X0462578Y0143972D01*
X0462592Y0143917D01*
X0452734Y0153245D02*
X0451922Y0153028D01*
X0451908Y0153083D01*
X0452720Y0153300D01*
X0452734Y0153245D01*
X0449678Y0161804D02*
X0448866Y0161587D01*
X0448852Y0161642D01*
X0449664Y0161859D01*
X0449678Y0161804D01*
X0447336Y0170141D02*
X0448148Y0170358D01*
X0447336Y0170141D02*
X0447322Y0170196D01*
X0448134Y0170413D01*
X0448148Y0170358D01*
X0445092Y0178917D02*
X0444280Y0178700D01*
X0444266Y0178755D01*
X0445078Y0178972D01*
X0445092Y0178917D01*
X0435234Y0188245D02*
X0434422Y0188028D01*
X0434408Y0188083D01*
X0435220Y0188300D01*
X0435234Y0188245D01*
X0432178Y0196804D02*
X0431366Y0196587D01*
X0431352Y0196642D01*
X0432164Y0196859D01*
X0432178Y0196804D01*
X0429836Y0205141D02*
X0430648Y0205358D01*
X0429836Y0205141D02*
X0429822Y0205196D01*
X0430634Y0205413D01*
X0430648Y0205358D01*
X0427592Y0213917D02*
X0426780Y0213700D01*
X0426766Y0213755D01*
X0427578Y0213972D01*
X0427592Y0213917D01*
X0434422Y0223028D02*
X0435234Y0223245D01*
X0434422Y0223028D02*
X0434408Y0223083D01*
X0435220Y0223300D01*
X0435234Y0223245D01*
X0432178Y0231804D02*
X0431366Y0231587D01*
X0431352Y0231642D01*
X0432164Y0231859D01*
X0432178Y0231804D01*
X0429836Y0240141D02*
X0430648Y0240358D01*
X0429836Y0240141D02*
X0429822Y0240196D01*
X0430634Y0240413D01*
X0430648Y0240358D01*
X0427592Y0248917D02*
X0426780Y0248700D01*
X0426766Y0248755D01*
X0427578Y0248972D01*
X0427592Y0248917D01*
X0395648Y0240358D02*
X0394836Y0240141D01*
X0394822Y0240196D01*
X0395634Y0240413D01*
X0395648Y0240358D01*
X0400234Y0223245D02*
X0399422Y0223028D01*
X0399408Y0223083D01*
X0400220Y0223300D01*
X0400234Y0223245D01*
X0395648Y0205358D02*
X0394836Y0205141D01*
X0394822Y0205196D01*
X0395634Y0205413D01*
X0395648Y0205358D01*
X0461780Y0213700D02*
X0462592Y0213917D01*
X0461780Y0213700D02*
X0461766Y0213755D01*
X0462578Y0213972D01*
X0462592Y0213917D01*
X0464836Y0205141D02*
X0465648Y0205358D01*
X0464836Y0205141D02*
X0464822Y0205196D01*
X0465634Y0205413D01*
X0465648Y0205358D01*
X0467178Y0196804D02*
X0466366Y0196587D01*
X0466352Y0196642D01*
X0467164Y0196859D01*
X0467178Y0196804D01*
X0469422Y0188028D02*
X0470234Y0188245D01*
X0469422Y0188028D02*
X0469408Y0188083D01*
X0470220Y0188300D01*
X0470234Y0188245D01*
X0479280Y0178700D02*
X0480092Y0178917D01*
X0479280Y0178700D02*
X0479266Y0178755D01*
X0480078Y0178972D01*
X0480092Y0178917D01*
X0484678Y0161804D02*
X0483866Y0161587D01*
X0483852Y0161642D01*
X0484664Y0161859D01*
X0484678Y0161804D01*
X0496780Y0143700D02*
X0497592Y0143917D01*
X0496780Y0143700D02*
X0496766Y0143755D01*
X0497578Y0143972D01*
X0497592Y0143917D01*
X0502178Y0126804D02*
X0501366Y0126587D01*
X0501352Y0126642D01*
X0502164Y0126859D01*
X0502178Y0126804D01*
X0505092Y0108917D02*
X0504280Y0108700D01*
X0504266Y0108755D01*
X0505078Y0108972D01*
X0505092Y0108917D01*
X0509678Y0091804D02*
X0508866Y0091587D01*
X0508852Y0091642D01*
X0509664Y0091859D01*
X0509678Y0091804D01*
X0425234Y0048245D02*
X0424422Y0048028D01*
X0424408Y0048083D01*
X0425220Y0048300D01*
X0425234Y0048245D01*
X0278428Y0021804D02*
X0277616Y0021587D01*
X0277602Y0021642D01*
X0278414Y0021859D01*
X0278428Y0021804D01*
X0246484Y0013245D02*
X0245672Y0013028D01*
X0245658Y0013083D01*
X0246470Y0013300D01*
X0246484Y0013245D01*
X0241898Y0030358D02*
X0241086Y0030141D01*
X0241072Y0030196D01*
X0241884Y0030413D01*
X0241898Y0030358D01*
X0215234Y0048245D02*
X0214422Y0048028D01*
X0214408Y0048083D01*
X0215220Y0048300D01*
X0215234Y0048245D01*
X0145234Y0048245D02*
X0144422Y0048028D01*
X0144408Y0048083D01*
X0145220Y0048300D01*
X0145234Y0048245D01*
X0075234Y0048245D02*
X0074422Y0048028D01*
X0074408Y0048083D01*
X0075220Y0048300D01*
X0075234Y0048245D01*
X0070648Y0065358D02*
X0069836Y0065141D01*
X0069822Y0065196D01*
X0070634Y0065413D01*
X0070648Y0065358D01*
X0045928Y0056804D02*
X0045116Y0056587D01*
X0045102Y0056642D01*
X0045914Y0056859D01*
X0045928Y0056804D01*
X0009398Y0100358D02*
X0008586Y0100141D01*
X0008572Y0100196D01*
X0009384Y0100413D01*
X0009398Y0100358D01*
X0014422Y0118028D02*
X0015234Y0118245D01*
X0014422Y0118028D02*
X0014408Y0118083D01*
X0015220Y0118300D01*
X0015234Y0118245D01*
X0010648Y0135358D02*
X0009836Y0135141D01*
X0009822Y0135196D01*
X0010634Y0135413D01*
X0010648Y0135358D01*
X0304280Y0178700D02*
X0305092Y0178917D01*
X0304280Y0178700D02*
X0304266Y0178755D01*
X0305078Y0178972D01*
X0305092Y0178917D01*
X0464836Y0240141D02*
X0465648Y0240358D01*
X0464836Y0240141D02*
X0464822Y0240196D01*
X0465634Y0240413D01*
X0465648Y0240358D01*
X0467178Y0231804D02*
X0466366Y0231587D01*
X0466352Y0231642D01*
X0467164Y0231859D01*
X0467178Y0231804D01*
X0469422Y0223028D02*
X0470234Y0223245D01*
X0469422Y0223028D02*
X0469408Y0223083D01*
X0470220Y0223300D01*
X0470234Y0223245D01*
X0496780Y0213700D02*
X0497592Y0213917D01*
X0496780Y0213700D02*
X0496766Y0213755D01*
X0497578Y0213972D01*
X0497592Y0213917D01*
X0501366Y0231587D02*
X0502178Y0231804D01*
X0501366Y0231587D02*
X0501352Y0231642D01*
X0502164Y0231859D01*
X0502178Y0231804D01*
X0497592Y0248917D02*
X0496780Y0248700D01*
X0496766Y0248755D01*
X0497578Y0248972D01*
X0497592Y0248917D01*
X0462592Y0248917D02*
X0461780Y0248700D01*
X0461766Y0248755D01*
X0462578Y0248972D01*
X0462592Y0248917D01*
X0501366Y0196587D02*
X0502178Y0196804D01*
X0501366Y0196587D02*
X0501352Y0196642D01*
X0502164Y0196859D01*
X0502178Y0196804D01*
D11*
X0264866Y0199718D02*
X0264866Y0199684D01*
X0264634Y0199684D01*
X0264634Y0199718D01*
X0264866Y0199718D01*
X0254866Y0199718D02*
X0254866Y0199684D01*
X0254634Y0199684D01*
X0254634Y0199718D01*
X0254866Y0199718D01*
X0244866Y0199718D02*
X0244866Y0199684D01*
X0244634Y0199684D01*
X0244634Y0199718D01*
X0244866Y0199718D01*
X0234866Y0204782D02*
X0234866Y0204816D01*
X0234866Y0204782D02*
X0234634Y0204782D01*
X0234634Y0204816D01*
X0234866Y0204816D01*
X0224866Y0204816D02*
X0224866Y0204782D01*
X0224634Y0204782D01*
X0224634Y0204816D01*
X0224866Y0204816D01*
X0214866Y0204816D02*
X0214866Y0204782D01*
X0214634Y0204782D01*
X0214634Y0204816D01*
X0214866Y0204816D01*
X0204866Y0204816D02*
X0204866Y0204782D01*
X0204634Y0204782D01*
X0204634Y0204816D01*
X0204866Y0204816D01*
X0194866Y0204816D02*
X0194866Y0204782D01*
X0194634Y0204782D01*
X0194634Y0204816D01*
X0194866Y0204816D01*
X0194866Y0217184D02*
X0194866Y0217218D01*
X0194866Y0217184D02*
X0194634Y0217184D01*
X0194634Y0217218D01*
X0194866Y0217218D01*
X0204866Y0217218D02*
X0204866Y0217184D01*
X0204634Y0217184D01*
X0204634Y0217218D01*
X0204866Y0217218D01*
X0214866Y0217218D02*
X0214866Y0217184D01*
X0214634Y0217184D01*
X0214634Y0217218D01*
X0214866Y0217218D01*
X0224866Y0217218D02*
X0224866Y0217184D01*
X0224634Y0217184D01*
X0224634Y0217218D01*
X0224866Y0217218D01*
X0234866Y0217218D02*
X0234866Y0217184D01*
X0234634Y0217184D01*
X0234634Y0217218D01*
X0234866Y0217218D01*
X0244866Y0187316D02*
X0244866Y0187282D01*
X0244634Y0187282D01*
X0244634Y0187316D01*
X0244866Y0187316D01*
X0254866Y0187316D02*
X0254866Y0187282D01*
X0254634Y0187282D01*
X0254634Y0187316D01*
X0254866Y0187316D01*
X0264866Y0187316D02*
X0264866Y0187282D01*
X0264634Y0187282D01*
X0264634Y0187316D01*
X0264866Y0187316D01*
D12*
X0280968Y0189532D02*
X0280968Y0189568D01*
X0280968Y0189532D02*
X0278532Y0189532D01*
X0278532Y0189568D01*
X0280968Y0189568D01*
X0290968Y0189568D02*
X0290968Y0189532D01*
X0288532Y0189532D01*
X0288532Y0189568D01*
X0290968Y0189568D01*
X0300968Y0189568D02*
X0300968Y0189532D01*
X0298532Y0189532D01*
X0298532Y0189568D01*
X0300968Y0189568D01*
X0310968Y0189568D02*
X0310968Y0189532D01*
X0308532Y0189532D01*
X0308532Y0189568D01*
X0310968Y0189568D01*
X0310968Y0197432D02*
X0310968Y0197468D01*
X0310968Y0197432D02*
X0308532Y0197432D01*
X0308532Y0197468D01*
X0310968Y0197468D01*
X0315968Y0207032D02*
X0315968Y0207068D01*
X0315968Y0207032D02*
X0313532Y0207032D01*
X0313532Y0207068D01*
X0315968Y0207068D01*
X0315968Y0214932D02*
X0315968Y0214968D01*
X0315968Y0214932D02*
X0313532Y0214932D01*
X0313532Y0214968D01*
X0315968Y0214968D01*
X0305968Y0214968D02*
X0305968Y0214932D01*
X0303532Y0214932D01*
X0303532Y0214968D01*
X0305968Y0214968D01*
X0295968Y0214968D02*
X0295968Y0214932D01*
X0293532Y0214932D01*
X0293532Y0214968D01*
X0295968Y0214968D01*
X0285968Y0214968D02*
X0285968Y0214932D01*
X0283532Y0214932D01*
X0283532Y0214968D01*
X0285968Y0214968D01*
X0285968Y0207068D02*
X0285968Y0207032D01*
X0283532Y0207032D01*
X0283532Y0207068D01*
X0285968Y0207068D01*
X0295968Y0207068D02*
X0295968Y0207032D01*
X0293532Y0207032D01*
X0293532Y0207068D01*
X0295968Y0207068D01*
X0305968Y0207068D02*
X0305968Y0207032D01*
X0303532Y0207032D01*
X0303532Y0207068D01*
X0305968Y0207068D01*
X0300968Y0197468D02*
X0300968Y0197432D01*
X0298532Y0197432D01*
X0298532Y0197468D01*
X0300968Y0197468D01*
X0290968Y0197468D02*
X0290968Y0197432D01*
X0288532Y0197432D01*
X0288532Y0197468D01*
X0290968Y0197468D01*
X0280968Y0197468D02*
X0280968Y0197432D01*
X0278532Y0197432D01*
X0278532Y0197468D01*
X0280968Y0197468D01*
X0268532Y0207032D02*
X0268532Y0207068D01*
X0270968Y0207068D01*
X0270968Y0207032D01*
X0268532Y0207032D01*
X0258532Y0207032D02*
X0258532Y0207068D01*
X0260968Y0207068D01*
X0260968Y0207032D01*
X0258532Y0207032D01*
X0248532Y0207032D02*
X0248532Y0207068D01*
X0250968Y0207068D01*
X0250968Y0207032D01*
X0248532Y0207032D01*
X0248532Y0214932D02*
X0248532Y0214968D01*
X0250968Y0214968D01*
X0250968Y0214932D01*
X0248532Y0214932D01*
X0258532Y0214932D02*
X0258532Y0214968D01*
X0260968Y0214968D01*
X0260968Y0214932D01*
X0258532Y0214932D01*
X0268532Y0214932D02*
X0268532Y0214968D01*
X0270968Y0214968D01*
X0270968Y0214932D01*
X0268532Y0214932D01*
X0349782Y0249532D02*
X0349782Y0249568D01*
X0352218Y0249568D01*
X0352218Y0249532D01*
X0349782Y0249532D01*
X0349782Y0257432D02*
X0349782Y0257468D01*
X0352218Y0257468D01*
X0352218Y0257432D01*
X0349782Y0257432D01*
X0359782Y0257432D02*
X0359782Y0257468D01*
X0362218Y0257468D01*
X0362218Y0257432D01*
X0359782Y0257432D01*
X0359782Y0249568D02*
X0359782Y0249532D01*
X0359782Y0249568D02*
X0362218Y0249568D01*
X0362218Y0249532D01*
X0359782Y0249532D01*
X0167282Y0249532D02*
X0167282Y0249568D01*
X0169718Y0249568D01*
X0169718Y0249532D01*
X0167282Y0249532D01*
X0167282Y0257432D02*
X0167282Y0257468D01*
X0169718Y0257468D01*
X0169718Y0257432D01*
X0167282Y0257432D01*
X0157282Y0257432D02*
X0157282Y0257468D01*
X0159718Y0257468D01*
X0159718Y0257432D01*
X0157282Y0257432D01*
X0157282Y0249568D02*
X0157282Y0249532D01*
X0157282Y0249568D02*
X0159718Y0249568D01*
X0159718Y0249532D01*
X0157282Y0249532D01*
M02*
