%
M48
M72
T01C0.0100
T02C0.0394
%
T01
X4445Y7724
X4568Y10824
X4325Y12251
X12454Y10942
X15766Y11260
X15968Y11618
X18317Y12360
X17551Y13528
X13666Y14525
X12916Y14050
X12669Y13528
X15631Y15532
X15995Y15896
X15776Y16634
X12865Y17386
X9906Y17541
X4693Y21384
X12621Y23464
X19858Y20459
X23339Y19469
X23607Y20139
X26469Y18391
X27713Y17484
X26684Y16709
X24332Y17025
X19715Y15573
X23729Y12600
X25509Y11097
X26077Y12398
X26059Y13189
X28229Y13528
X30081Y14377
X30251Y14634
X30073Y17028
X36220Y18789
X37927Y18451
X39260Y18232
X36994Y17645
X39637Y15425
X40969Y14557
X40190Y14195
X36994Y14375
X32642Y10418
X32445Y9975
X29832Y11220
X28996Y11816
X29103Y9632
X30418Y7719
X34041Y7446
X35277Y7707
X37744Y7707
X40905Y9292
X39808Y10239
X46328Y7332
X43325Y4816
X41220Y6208
X45880Y14029
X42264Y19065
X41675Y22409
X42264Y23207
X46040Y23451
X32445Y20528
X23307Y11077
X22379Y9260
X20497Y8483
X18117Y10028
X18492Y10841
X16504Y7418
X18004Y6873
X18382Y6141
X21759Y5756
X24495Y3778
T02
X24975Y22725
X23975Y22725
X22975Y22725
X21975Y22725
X20975Y22725
X19975Y22725
X19975Y23725
X20975Y23725
X21975Y23725
X22975Y23725
X23975Y23725
X24975Y23725
X25975Y23725
X26975Y23725
X27975Y23725
X28975Y23725
X29975Y23725
X30975Y23725
X31975Y23725
X31975Y22725
X30975Y22725
X29975Y22725
X28975Y22725
X27975Y22725
X26975Y22725
X25975Y22725
M30
