G75*
%MOIN*%
%OFA0B0*%
%FSLAX25Y25*%
%IPPOS*%
%LPD*%
%AMOC8*
5,1,8,0,0,1.08239X$1,22.5*
%
%ADD10C,0.05906*%
%ADD11C,0.00600*%
%ADD12C,0.02000*%
D10*
X0199750Y0227250D03*
X0209750Y0227250D03*
X0219750Y0227250D03*
X0229750Y0227250D03*
X0239750Y0227250D03*
X0249750Y0227250D03*
X0259750Y0227250D03*
X0269750Y0227250D03*
X0279750Y0227250D03*
X0289750Y0227250D03*
X0299750Y0227250D03*
X0309750Y0227250D03*
X0319750Y0227250D03*
X0319750Y0237250D03*
X0309750Y0237250D03*
X0299750Y0237250D03*
X0289750Y0237250D03*
X0279750Y0237250D03*
X0269750Y0237250D03*
X0259750Y0237250D03*
X0249750Y0237250D03*
X0239750Y0237250D03*
X0229750Y0237250D03*
X0219750Y0237250D03*
X0209750Y0237250D03*
X0199750Y0237250D03*
D11*
X0245175Y0228125D02*
X0245175Y0227225D01*
X0184356Y0166406D01*
X0162935Y0166406D01*
X0104771Y0108242D01*
X0045683Y0108242D01*
X0043250Y0122515D02*
X0116920Y0122515D01*
X0198576Y0204170D01*
X0198576Y0204587D01*
X0223787Y0181128D02*
X0236065Y0193407D01*
X0236065Y0201385D01*
X0233387Y0194690D02*
X0183166Y0144469D01*
X0183166Y0123598D01*
X0175813Y0116245D01*
X0175813Y0116184D01*
X0175813Y0069418D01*
X0183818Y0061413D01*
X0180037Y0068734D02*
X0180037Y0099149D01*
X0181165Y0100277D01*
X0184916Y0104027D01*
X0184916Y0108407D01*
X0197150Y0120642D01*
X0197150Y0155734D01*
X0183358Y0160858D02*
X0249750Y0227250D01*
X0254809Y0222191D01*
X0272158Y0222191D01*
X0275287Y0225319D01*
X0275287Y0238637D01*
X0279091Y0242442D01*
X0320143Y0242442D01*
X0377368Y0185216D01*
X0377368Y0183724D01*
X0463278Y0097813D01*
X0463278Y0073320D01*
X0433253Y0048164D02*
X0433253Y0124703D01*
X0320706Y0237250D01*
X0319750Y0237250D01*
X0319476Y0233397D02*
X0313603Y0233397D01*
X0309750Y0237250D01*
X0308672Y0232802D02*
X0304325Y0237148D01*
X0304325Y0238138D01*
X0301222Y0241241D01*
X0288264Y0241241D01*
X0285742Y0238719D01*
X0285742Y0231258D01*
X0289750Y0227250D01*
X0299750Y0227250D02*
X0302626Y0224374D01*
X0302626Y0146461D01*
X0302508Y0146343D01*
X0302710Y0146141D01*
X0302710Y0141909D01*
X0296078Y0135277D01*
X0296078Y0085296D01*
X0304180Y0077193D01*
X0288282Y0075010D02*
X0237288Y0126004D01*
X0233066Y0124469D02*
X0233066Y0110769D01*
X0233066Y0049665D01*
X0244952Y0037779D01*
X0217594Y0057561D02*
X0216756Y0058399D01*
X0216756Y0084828D01*
X0204973Y0084828D01*
X0216756Y0084828D02*
X0223787Y0091858D01*
X0223787Y0092598D01*
X0223787Y0181128D01*
X0243319Y0190819D02*
X0243319Y0170250D01*
X0243319Y0131891D01*
X0260586Y0131891D01*
X0262487Y0125691D02*
X0260772Y0123977D01*
X0262487Y0125691D02*
X0262487Y0181715D01*
X0264685Y0183914D01*
X0271874Y0174844D02*
X0277128Y0174844D01*
X0283813Y0181529D01*
X0283813Y0233187D01*
X0279750Y0237250D01*
X0289750Y0237250D02*
X0294750Y0232250D01*
X0294750Y0176252D01*
X0300726Y0170277D01*
X0300607Y0170158D01*
X0300607Y0143977D01*
X0300809Y0143775D01*
X0296078Y0135277D02*
X0282294Y0135277D01*
X0266844Y0141277D02*
X0266844Y0167087D01*
X0264933Y0167904D02*
X0271874Y0174844D01*
X0264933Y0167904D02*
X0264933Y0120815D01*
X0255091Y0110973D01*
X0240488Y0131891D02*
X0233066Y0124469D01*
X0240488Y0131891D02*
X0243319Y0131891D01*
X0266844Y0141277D02*
X0289957Y0118164D01*
X0291026Y0117095D01*
X0291026Y0096319D01*
X0298317Y0112197D02*
X0304408Y0118288D01*
X0304408Y0232592D01*
X0299750Y0237250D01*
X0308672Y0232802D02*
X0309972Y0232802D01*
X0314198Y0228576D01*
X0314198Y0225629D01*
X0356102Y0183726D01*
X0356102Y0080397D01*
X0352773Y0077068D01*
X0356102Y0080397D02*
X0359432Y0077067D01*
X0377443Y0077067D01*
X0378380Y0075167D02*
X0401904Y0098691D01*
X0401904Y0141946D01*
X0394470Y0149380D01*
X0394470Y0158403D01*
X0319476Y0233397D01*
X0309750Y0227250D02*
X0324454Y0212546D01*
X0324454Y0205277D01*
X0324454Y0099752D01*
X0324454Y0075293D01*
X0325292Y0074456D01*
X0340410Y0074456D01*
X0344669Y0075809D02*
X0304113Y0035253D01*
X0203969Y0035253D01*
X0165038Y0074183D01*
X0149837Y0089384D01*
X0149837Y0109424D01*
X0149837Y0148839D01*
X0156314Y0155315D01*
X0159948Y0158957D02*
X0159948Y0150840D01*
X0175511Y0135277D01*
X0157662Y0117428D01*
X0157662Y0112602D01*
X0159681Y0116184D02*
X0175813Y0116184D01*
X0149837Y0109424D02*
X0124535Y0109424D01*
X0126694Y0135277D02*
X0136665Y0145247D01*
X0157759Y0166341D01*
X0159160Y0160858D02*
X0183358Y0160858D01*
X0159160Y0160858D02*
X0075540Y0077238D01*
X0044455Y0077238D01*
X0129163Y0140498D02*
X0129163Y0145310D01*
X0099065Y0175409D01*
X0128646Y0173865D02*
X0128646Y0232203D01*
X0126213Y0234635D01*
X0127403Y0236585D02*
X0069681Y0236585D01*
X0046933Y0213836D01*
X0127403Y0236585D02*
X0131481Y0232507D01*
X0270199Y0232507D01*
X0273776Y0228930D01*
X0273776Y0225824D01*
X0271348Y0223396D01*
X0263604Y0223396D01*
X0259750Y0227250D01*
X0265893Y0231107D02*
X0248157Y0231107D01*
X0245175Y0228125D01*
X0265893Y0231107D02*
X0269750Y0227250D01*
X0279750Y0227250D02*
X0243319Y0190819D01*
X0356102Y0183726D02*
X0358040Y0183726D01*
X0362204Y0187889D01*
X0379269Y0189431D02*
X0379269Y0184511D01*
X0379269Y0189431D02*
X0421909Y0232072D01*
X0422635Y0232072D01*
X0416754Y0224089D02*
X0416754Y0182317D01*
X0416768Y0182317D01*
X0458799Y0140286D01*
X0409694Y0145573D02*
X0408060Y0143939D01*
X0408060Y0093910D01*
X0409047Y0092923D01*
X0409047Y0065237D01*
X0412200Y0062084D01*
X0378380Y0075167D02*
X0345311Y0075167D01*
X0344669Y0075809D01*
X0326417Y0094061D01*
X0326417Y0104179D01*
X0324454Y0075293D02*
X0324171Y0075010D01*
X0288282Y0075010D01*
X0369936Y0130533D02*
X0398078Y0102392D01*
X0369936Y0130533D02*
X0369936Y0143751D01*
X0369936Y0176452D01*
X0392601Y0182317D02*
X0416754Y0182317D01*
X0422635Y0190646D02*
X0422635Y0196746D01*
X0460400Y0234510D01*
X0396370Y0154250D02*
X0406681Y0143939D01*
X0408060Y0143939D01*
D12*
X0044455Y0077238D03*
X0045683Y0108242D03*
X0043250Y0122515D03*
X0124535Y0109424D03*
X0157662Y0112602D03*
X0159681Y0116184D03*
X0183166Y0123598D03*
X0175511Y0135277D03*
X0136665Y0145247D03*
X0129163Y0140498D03*
X0126694Y0135277D03*
X0156314Y0155315D03*
X0159948Y0158957D03*
X0157759Y0166341D03*
X0128646Y0173865D03*
X0099065Y0175409D03*
X0046933Y0213836D03*
X0126213Y0234635D03*
X0198576Y0204587D03*
X0233387Y0194690D03*
X0236065Y0201385D03*
X0264685Y0183914D03*
X0277128Y0174844D03*
X0266844Y0167087D03*
X0243319Y0170250D03*
X0197150Y0155734D03*
X0237288Y0126004D03*
X0255091Y0110973D03*
X0260772Y0123977D03*
X0260586Y0131891D03*
X0282294Y0135277D03*
X0300809Y0143775D03*
X0302508Y0146343D03*
X0300726Y0170277D03*
X0362204Y0187889D03*
X0379269Y0184511D03*
X0392601Y0182317D03*
X0369936Y0176452D03*
X0396370Y0154250D03*
X0409694Y0145573D03*
X0401904Y0141946D03*
X0369936Y0143751D03*
X0326417Y0104179D03*
X0324454Y0099752D03*
X0298317Y0112197D03*
X0289957Y0118164D03*
X0291026Y0096319D03*
X0304180Y0077193D03*
X0340410Y0074456D03*
X0352773Y0077068D03*
X0377443Y0077067D03*
X0409047Y0092923D03*
X0398078Y0102392D03*
X0463278Y0073320D03*
X0433253Y0048164D03*
X0412200Y0062084D03*
X0458799Y0140286D03*
X0422635Y0190646D03*
X0416754Y0224089D03*
X0422635Y0232072D03*
X0460400Y0234510D03*
X0324454Y0205277D03*
X0233066Y0110769D03*
X0223787Y0092598D03*
X0204973Y0084828D03*
X0181165Y0100277D03*
X0184916Y0108407D03*
X0165038Y0074183D03*
X0180037Y0068734D03*
X0183818Y0061413D03*
X0217594Y0057561D03*
X0244952Y0037779D03*
M02*
